<svg id="svg" version="1.1" xmlns="http://www.w3.org/2000/svg" xmlns:xlink="http://www.w3.org/1999/xlink" width="400" height="400" viewBox="0, 0, 400,400"><g id="svgg"><path id="path0" d="M117.400 127.794 C 105.274 130.400,97.600 140.174,97.600 153.011 C 97.600 164.047,103.297 171.158,116.315 176.369 C 117.352 176.784,119.190 177.516,120.400 177.996 C 132.841 182.928,137.308 188.222,136.688 197.300 C 135.542 214.064,113.603 217.199,104.627 201.882 L 103.533 200.015 100.866 201.861 C 99.400 202.877,97.975 203.885,97.701 204.102 C 96.190 205.297,104.831 213.574,109.972 215.856 C 130.910 225.149,153.000 212.594,153.000 191.400 C 153.000 177.897,148.820 173.470,126.791 163.642 C 116.970 159.261,113.800 155.499,113.800 148.227 C 113.800 138.687,118.678 133.800,128.200 133.800 C 135.453 133.800,140.527 136.962,143.597 143.394 C 145.068 146.476,144.685 146.380,147.597 144.402 C 150.648 142.330,150.638 142.355,149.336 139.899 C 144.266 130.332,130.272 125.028,117.400 127.794 M190.463 147.231 C 162.134 150.905,150.420 186.707,170.595 207.951 C 190.468 228.878,226.408 216.720,230.017 187.851 C 233.068 163.452,214.265 144.143,190.463 147.231 M344.496 148.515 C 343.874 150.375,335.780 170.795,334.790 173.000 C 334.376 173.923,330.298 184.148,327.771 190.600 C 326.823 193.020,325.208 197.070,324.183 199.600 C 323.157 202.130,321.610 206.000,320.744 208.200 C 319.878 210.400,318.920 212.740,318.616 213.400 C 318.311 214.060,317.936 215.103,317.783 215.718 L 317.504 216.837 320.398 216.718 L 323.292 216.600 324.186 214.200 C 326.344 208.405,329.711 199.741,330.054 199.100 C 330.671 197.946,352.838 198.038,354.000 199.200 C 354.440 199.640,354.800 200.191,354.800 200.424 C 354.800 200.657,355.770 203.312,356.955 206.324 C 358.140 209.336,359.535 212.922,360.055 214.294 L 361.000 216.788 367.500 216.794 C 371.618 216.798,374.000 216.652,374.000 216.396 C 374.000 216.034,368.786 203.226,367.407 200.200 C 367.106 199.540,366.196 197.380,365.385 195.400 C 364.013 192.050,363.076 189.777,361.427 185.800 C 361.063 184.920,360.603 183.840,360.406 183.400 C 360.208 182.960,359.488 181.250,358.805 179.600 C 358.121 177.950,357.216 175.790,356.793 174.800 C 356.371 173.810,353.942 167.960,351.395 161.800 C 345.643 147.883,345.521 147.598,345.193 147.396 C 345.046 147.305,344.732 147.808,344.496 148.515 M243.200 182.600 L 243.200 216.800 246.000 216.800 L 248.800 216.800 248.800 189.520 C 248.800 172.784,248.943 162.387,249.170 162.620 C 249.509 162.968,250.819 165.898,253.453 172.200 C 254.005 173.520,254.613 174.960,254.804 175.400 C 254.996 175.840,255.677 177.460,256.318 179.000 C 256.959 180.540,258.215 183.510,259.109 185.600 C 260.003 187.690,262.836 194.440,265.406 200.600 C 267.975 206.760,270.313 212.340,270.600 213.000 C 272.564 217.512,273.229 218.902,273.355 218.761 C 273.434 218.672,274.894 215.090,276.600 210.800 C 278.306 206.510,279.937 202.460,280.225 201.800 C 280.513 201.140,281.458 198.800,282.324 196.600 C 283.190 194.400,285.474 188.730,287.400 184.000 C 290.774 175.712,291.479 173.940,294.443 166.304 C 295.189 164.381,295.934 162.806,296.097 162.804 C 296.261 162.802,296.441 174.905,296.497 189.700 L 296.600 216.600 302.600 216.600 L 308.600 216.600 308.702 182.500 L 308.804 148.400 302.086 148.400 L 295.367 148.400 293.212 153.900 C 282.854 180.339,276.989 194.795,276.665 194.688 C 276.481 194.627,275.646 192.872,274.810 190.788 C 273.974 188.705,272.620 185.380,271.803 183.400 C 270.985 181.420,269.325 177.370,268.114 174.400 C 263.739 163.666,259.694 153.772,258.097 149.900 L 257.479 148.400 250.339 148.400 L 243.200 148.400 243.200 182.600 M202.853 152.734 C 212.044 157.166,216.608 167.091,216.588 182.600 C 216.569 197.294,212.354 207.274,204.271 211.767 C 187.272 221.215,171.552 202.803,174.365 176.739 C 176.437 157.550,189.686 146.385,202.853 152.734 M344.662 175.413 C 345.864 178.486,347.994 183.873,349.396 187.383 C 350.797 190.894,351.856 193.909,351.748 194.083 C 351.397 194.652,332.400 194.472,332.397 193.900 C 332.390 192.969,341.797 169.622,342.138 169.724 C 342.324 169.780,343.459 172.340,344.662 175.413 M243.939 242.703 C 235.369 247.753,236.936 263.677,246.192 265.598 C 252.147 266.835,257.347 263.934,258.560 258.700 L 258.815 257.600 256.415 257.600 C 254.188 257.600,253.997 257.672,253.764 258.601 C 253.070 261.367,248.276 262.676,245.846 260.765 C 242.299 257.974,242.399 249.692,246.016 246.648 C 248.532 244.531,254.000 246.115,254.000 248.960 C 254.000 249.476,254.467 249.600,256.400 249.600 C 259.149 249.600,259.301 249.323,258.044 246.600 C 255.881 241.913,248.663 239.919,243.939 242.703 M195.600 244.000 L 195.600 246.000 199.000 246.000 L 202.400 246.000 202.400 255.600 L 202.400 265.200 205.000 265.200 L 207.600 265.200 207.600 255.616 L 207.600 246.032 210.900 245.916 L 214.200 245.800 214.322 243.900 L 214.444 242.000 205.022 242.000 L 195.600 242.000 195.600 244.000 M217.867 242.267 C 217.720 242.413,217.600 247.633,217.600 253.867 L 217.600 265.200 226.400 265.200 L 235.200 265.200 235.200 263.200 L 235.200 261.200 228.800 261.200 L 222.400 261.200 222.400 258.200 L 222.400 255.200 227.700 255.153 C 230.615 255.127,233.135 255.127,233.300 255.153 C 233.465 255.179,233.600 254.300,233.600 253.200 L 233.600 251.200 228.000 251.200 L 222.400 251.200 222.400 248.600 L 222.400 246.000 228.600 246.000 L 234.800 246.000 234.800 244.000 L 234.800 242.000 226.467 242.000 C 221.883 242.000,218.013 242.120,217.867 242.267 M263.067 242.267 C 262.920 242.413,262.800 247.633,262.800 253.867 L 262.800 265.200 265.188 265.200 L 267.576 265.200 267.688 260.100 L 267.800 255.000 272.400 255.000 L 277.000 255.000 277.112 260.100 L 277.224 265.200 279.412 265.200 L 281.600 265.200 281.600 253.600 L 281.600 242.000 279.400 242.000 L 277.200 242.000 277.200 246.413 L 277.200 250.825 272.500 250.713 L 267.800 250.600 267.686 246.300 L 267.573 242.000 265.453 242.000 C 264.287 242.000,263.213 242.120,263.067 242.267 M304.667 242.267 C 304.520 242.413,304.400 247.633,304.400 253.867 L 304.400 265.200 306.800 265.200 L 309.200 265.200 309.200 253.600 L 309.200 242.000 307.067 242.000 C 305.893 242.000,304.813 242.120,304.667 242.267 M314.000 253.600 L 314.000 265.200 316.200 265.200 L 318.400 265.200 318.400 257.176 C 318.400 252.191,318.544 249.242,318.781 249.388 C 318.991 249.518,320.094 251.284,321.231 253.312 C 322.369 255.340,324.383 258.845,325.707 261.100 L 328.113 265.200 330.457 265.200 L 332.800 265.200 332.800 253.579 L 332.800 241.958 330.700 242.079 L 328.600 242.200 328.400 250.000 L 328.200 257.800 327.010 255.800 C 325.082 252.560,324.733 251.954,321.854 246.860 L 319.108 242.000 316.554 242.000 L 314.000 242.000 314.000 253.600 M335.762 242.555 C 335.642 242.868,335.601 243.726,335.672 244.462 L 335.800 245.800 339.300 245.916 L 342.800 246.031 342.800 255.616 L 342.800 265.200 345.193 265.200 L 347.586 265.200 347.693 255.700 L 347.800 246.200 351.200 246.000 L 354.600 245.800 354.600 244.000 L 354.600 242.200 345.290 242.093 C 337.536 242.003,335.944 242.080,335.762 242.555 M357.884 242.249 C 357.728 242.405,357.600 247.633,357.600 253.867 L 357.600 265.200 366.022 265.200 L 374.444 265.200 374.322 263.300 L 374.200 261.400 368.507 261.289 L 362.814 261.178 362.707 251.689 L 362.600 242.200 360.384 242.083 C 359.165 242.018,358.040 242.093,357.884 242.249 " stroke="none" fill="#253465" fill-rule="evenodd"></path><path id="path1" d="M0.000 200.000 L 0.000 400.000 200.000 400.000 L 400.000 400.000 400.000 200.000 L 400.000 0.000 200.000 0.000 L 0.000 0.000 0.000 200.000 M106.901 82.100 C 107.186 84.062,109.230 95.744,110.628 103.400 C 110.949 105.160,111.476 108.220,111.800 110.200 C 112.594 115.062,114.286 124.718,114.603 126.200 C 114.851 127.359,114.772 127.439,112.266 128.556 C 110.840 129.192,109.161 130.148,108.536 130.680 C 107.454 131.603,110.254 130.305,111.800 129.168 C 113.508 127.911,119.609 126.800,124.800 126.800 C 136.374 126.800,144.639 131.186,149.742 140.035 C 151.161 142.497,151.189 142.424,148.005 144.541 C 144.537 146.847,144.844 146.903,143.335 143.692 C 136.664 129.494,116.851 130.802,113.987 145.629 C 112.392 153.883,116.848 159.147,130.200 164.784 C 149.544 172.951,156.014 182.142,153.019 197.200 C 148.142 221.721,112.525 227.199,97.656 205.715 L 96.767 204.430 99.683 202.288 C 101.288 201.109,102.816 200.018,103.079 199.862 C 103.386 199.680,104.195 200.554,105.331 202.294 C 115.636 218.081,137.723 212.600,136.276 194.615 C 135.598 186.186,132.839 183.763,115.400 176.287 C 102.712 170.848,97.224 163.862,97.206 153.126 C 97.192 145.147,99.770 138.863,105.184 133.677 C 106.403 132.509,107.093 131.671,106.717 131.813 C 106.217 132.003,105.978 131.821,105.827 131.136 C 105.574 129.986,104.632 124.591,103.568 118.200 C 103.128 115.560,102.710 113.220,102.638 113.000 C 102.484 112.531,101.624 115.538,100.465 120.600 C 100.011 122.580,99.083 126.630,98.403 129.600 C 96.855 136.358,95.796 140.894,94.810 145.000 C 94.387 146.760,93.568 150.270,92.991 152.800 C 92.414 155.330,91.599 158.840,91.181 160.600 C 89.945 165.807,88.910 170.264,87.608 176.000 C 86.934 178.970,86.119 182.480,85.798 183.800 C 85.476 185.120,84.760 188.180,84.207 190.600 C 82.294 198.961,80.482 206.770,79.217 212.100 C 78.787 213.915,77.886 217.830,77.216 220.800 C 75.483 228.475,74.794 231.270,74.379 232.300 L 74.017 233.200 38.209 233.200 L 2.400 233.200 2.400 228.600 L 2.400 224.000 34.376 224.000 C 53.798 224.000,66.444 223.853,66.584 223.626 C 66.711 223.420,67.278 221.215,67.844 218.726 C 68.409 216.237,69.194 212.850,69.588 211.200 C 70.284 208.290,71.669 202.366,73.189 195.800 C 74.572 189.827,76.067 183.412,76.872 180.000 C 77.313 178.130,77.921 175.520,78.223 174.200 C 78.847 171.470,80.710 163.503,82.244 157.000 C 82.815 154.580,83.624 151.115,84.041 149.300 C 84.458 147.485,85.143 144.515,85.561 142.700 C 85.980 140.885,86.709 137.690,87.181 135.600 C 87.653 133.510,88.205 131.170,88.407 130.400 C 88.980 128.221,91.909 115.702,95.659 99.400 C 96.115 97.420,96.742 94.859,97.052 93.708 C 97.363 92.558,97.793 90.668,98.008 89.508 C 98.222 88.349,98.786 85.915,99.259 84.100 L 100.121 80.800 103.417 80.800 L 106.712 80.800 106.901 82.100 M117.510 143.100 C 117.758 144.585,118.339 147.960,118.799 150.600 C 120.151 158.347,120.157 158.400,119.607 158.400 C 116.892 158.400,113.677 150.730,114.426 146.039 C 115.308 140.513,116.834 139.059,117.510 143.100 M203.969 147.582 C 232.539 154.984,240.513 192.672,217.400 211.063 C 197.818 226.644,169.078 217.697,161.772 193.746 C 159.960 187.805,159.764 177.359,161.375 172.613 C 161.719 171.601,162.000 170.571,162.000 170.325 C 162.000 169.608,164.341 164.854,165.875 162.455 C 170.317 155.512,178.704 149.579,186.800 147.653 C 188.670 147.208,190.560 146.754,191.000 146.645 C 192.890 146.174,200.720 146.740,203.969 147.582 M346.397 148.815 C 347.580 151.808,350.028 157.729,350.607 159.000 C 350.908 159.660,352.522 163.530,354.194 167.600 C 357.168 174.839,358.900 178.996,359.610 180.600 C 359.805 181.040,360.263 182.120,360.627 183.000 C 362.276 186.977,363.213 189.250,364.585 192.600 C 365.396 194.580,366.301 196.740,366.595 197.400 C 367.448 199.314,370.325 206.177,372.631 211.800 C 373.262 213.340,374.003 215.043,374.276 215.585 C 375.023 217.065,374.512 217.187,367.562 217.194 C 360.524 217.201,360.611 217.235,359.483 214.000 C 359.138 213.010,358.291 210.760,357.599 209.000 C 356.908 207.240,355.771 204.226,355.072 202.302 L 353.800 198.803 342.174 198.802 L 330.547 198.800 329.703 200.900 C 327.775 205.699,325.256 212.267,324.986 213.200 C 324.827 213.750,324.357 214.875,323.941 215.700 L 323.184 217.200 320.415 217.200 C 316.730 217.200,316.652 216.690,319.403 210.600 C 319.701 209.940,321.312 205.890,322.982 201.600 C 324.653 197.310,326.270 193.260,326.575 192.600 C 326.880 191.940,328.147 188.790,329.390 185.600 C 330.633 182.410,331.811 179.440,332.007 179.000 C 332.203 178.560,333.073 176.400,333.940 174.200 C 337.214 165.899,340.454 157.771,340.798 157.000 C 340.994 156.560,341.904 154.310,342.821 152.000 C 343.738 149.690,344.580 147.567,344.693 147.283 C 345.044 146.400,345.663 146.957,346.397 148.815 M258.156 149.300 C 258.915 150.961,260.731 155.358,265.798 167.800 C 267.837 172.807,268.517 174.463,272.856 185.000 C 273.943 187.640,275.198 190.745,275.645 191.900 C 276.692 194.607,276.835 194.562,278.166 191.100 C 278.779 189.505,280.417 185.320,281.806 181.800 C 283.195 178.280,285.715 171.890,287.406 167.600 C 289.098 163.310,290.714 159.260,290.999 158.600 C 291.283 157.940,292.190 155.690,293.014 153.600 C 293.838 151.510,294.696 149.395,294.921 148.900 C 295.321 148.017,295.459 148.000,302.266 148.000 L 309.204 148.000 309.102 182.500 L 309.000 217.000 302.600 217.000 L 296.200 217.000 296.000 190.600 C 295.890 176.080,295.672 164.470,295.516 164.800 C 295.360 165.130,294.887 166.300,294.466 167.400 C 294.044 168.500,291.763 174.170,289.396 180.000 C 287.030 185.830,284.752 191.500,284.334 192.600 C 283.916 193.700,283.406 194.960,283.200 195.400 C 282.993 195.840,280.944 200.880,278.646 206.600 C 273.031 220.576,273.443 219.683,272.877 219.117 C 272.615 218.855,272.400 218.486,272.400 218.298 C 272.400 218.110,272.062 217.201,271.648 216.278 C 270.688 214.134,266.273 203.675,263.595 197.200 C 262.457 194.450,261.289 191.660,260.998 191.000 C 260.445 189.744,259.302 187.039,257.194 182.000 C 256.504 180.350,255.696 178.460,255.400 177.800 C 255.103 177.140,254.236 175.070,253.472 173.200 C 251.820 169.152,249.642 163.881,249.506 163.600 C 249.452 163.490,249.317 175.460,249.204 190.200 L 249.000 217.000 246.000 217.000 L 243.000 217.000 242.897 183.000 C 242.840 164.300,242.879 148.775,242.984 148.500 C 243.127 148.126,244.982 148.000,250.369 148.000 L 257.562 148.000 258.156 149.300 M191.070 152.035 C 169.891 158.074,168.322 204.097,189.006 212.586 C 200.789 217.422,212.539 208.666,215.557 192.800 C 220.278 167.983,207.829 147.257,191.070 152.035 M341.116 172.300 C 340.568 173.937,337.447 181.807,336.398 184.200 C 336.205 184.640,335.250 187.025,334.276 189.500 L 332.505 194.000 342.031 194.000 L 351.557 194.000 350.625 191.500 C 350.112 190.125,348.715 186.570,347.521 183.600 C 346.327 180.630,344.665 176.445,343.828 174.300 C 342.079 169.817,341.974 169.740,341.116 172.300 M115.740 176.970 C 119.248 178.555,122.779 180.000,123.143 180.000 C 123.925 180.000,124.148 180.942,125.992 192.000 C 126.414 194.530,127.157 198.850,127.644 201.600 C 129.126 209.975,128.689 210.706,122.074 210.917 L 119.468 211.000 118.599 206.200 C 117.589 200.614,117.061 197.537,116.025 191.200 C 115.612 188.670,115.001 185.070,114.668 183.200 C 113.345 175.775,113.327 175.879,115.740 176.970 M227.366 209.957 C 231.056 211.866,235.849 215.574,240.540 220.147 L 244.079 223.598 320.740 223.699 L 397.400 223.800 397.514 228.168 C 397.599 231.393,397.494 232.621,397.114 232.861 C 395.924 233.616,240.040 233.259,239.427 232.500 C 234.703 226.645,231.321 223.297,226.992 220.190 C 224.679 218.529,223.987 218.234,221.446 217.821 C 219.820 217.557,215.528 218.556,212.000 220.020 C 200.806 224.665,194.143 225.953,181.114 225.988 C 176.184 226.002,174.512 226.882,173.688 229.898 C 173.462 230.724,172.916 232.750,172.474 234.400 C 172.032 236.050,170.922 240.010,170.008 243.200 C 169.094 246.390,168.011 250.170,167.601 251.600 C 167.192 253.030,166.381 255.910,165.800 258.000 C 165.219 260.090,164.396 263.015,163.972 264.500 C 163.547 265.985,162.853 268.415,162.428 269.900 C 162.004 271.385,161.181 274.310,160.600 276.400 C 160.019 278.490,159.209 281.370,158.800 282.800 C 158.391 284.230,157.581 287.110,157.000 289.200 C 156.419 291.290,155.607 294.170,155.197 295.600 C 154.787 297.030,153.620 301.170,152.605 304.800 C 151.590 308.430,150.514 312.210,150.213 313.200 C 149.913 314.190,149.465 315.765,149.218 316.700 L 148.769 318.400 143.385 318.400 C 140.423 318.400,137.997 318.355,137.993 318.300 C 137.982 318.149,136.536 309.615,135.638 304.400 C 133.189 290.180,132.759 287.746,132.598 287.200 C 132.500 286.870,132.149 284.890,131.817 282.800 C 131.485 280.710,130.768 276.480,130.224 273.400 C 129.680 270.320,128.957 266.180,128.617 264.200 C 128.277 262.220,127.728 259.160,127.398 257.400 C 127.068 255.640,126.521 252.580,126.184 250.600 C 125.846 248.620,125.223 245.020,124.799 242.600 C 124.017 238.136,122.412 228.828,121.419 223.000 C 120.761 219.129,120.187 219.593,125.917 219.363 L 130.723 219.171 131.186 222.085 C 131.440 223.688,131.897 226.260,132.201 227.800 C 132.505 229.340,133.055 232.400,133.422 234.600 C 136.056 250.360,137.172 256.777,139.023 266.800 C 139.327 268.450,139.849 271.510,140.182 273.600 C 140.515 275.690,141.238 279.920,141.789 283.000 C 142.339 286.080,143.095 290.535,143.469 292.900 C 143.843 295.265,144.261 297.200,144.398 297.200 C 144.535 297.200,145.418 294.095,146.361 290.300 C 147.303 286.505,148.396 282.230,148.790 280.800 C 149.183 279.370,149.958 276.490,150.513 274.400 C 154.336 259.996,158.292 246.392,161.158 237.800 C 165.614 224.441,168.316 218.672,170.677 217.475 C 173.587 216.000,179.121 215.867,183.128 217.177 C 196.409 221.517,211.098 218.455,220.000 209.491 C 221.557 207.923,223.697 208.059,227.366 209.957 M254.195 242.229 C 256.417 243.332,258.814 246.338,259.086 248.362 L 259.305 250.000 256.726 250.000 L 254.147 250.000 253.234 248.375 C 250.094 242.788,243.584 246.560,243.609 253.953 C 243.633 261.344,250.831 264.688,253.413 258.508 C 254.071 256.931,259.210 256.391,259.191 257.900 C 259.098 265.363,246.938 269.148,241.374 263.446 C 236.133 258.075,237.304 245.649,243.345 242.525 C 246.356 240.968,251.378 240.831,254.195 242.229 M214.720 243.900 L 214.600 246.200 211.100 246.316 L 207.600 246.431 207.600 256.016 L 207.600 265.600 205.000 265.600 L 202.400 265.600 202.400 256.016 L 202.400 246.431 198.900 246.316 L 195.400 246.200 195.280 243.900 L 195.160 241.600 205.000 241.600 L 214.840 241.600 214.720 243.900 M235.000 244.000 L 235.000 246.200 228.679 246.310 L 222.359 246.421 222.479 248.510 L 222.600 250.600 228.320 250.711 L 234.039 250.822 233.920 253.111 L 233.800 255.400 228.082 255.511 L 222.364 255.622 222.482 258.311 L 222.600 261.000 229.100 261.110 L 235.600 261.220 235.600 263.417 L 235.600 265.615 226.500 265.508 L 217.400 265.400 217.294 254.005 C 217.235 247.738,217.276 242.379,217.384 242.097 C 217.538 241.697,219.496 241.608,226.290 241.692 L 235.000 241.800 235.000 244.000 M268.000 246.014 L 268.000 250.427 272.300 250.314 L 276.600 250.200 276.714 245.900 L 276.827 241.600 279.414 241.600 L 282.000 241.600 282.000 253.600 L 282.000 265.600 279.400 265.600 L 276.800 265.600 276.800 260.400 L 276.800 255.200 272.400 255.200 L 268.000 255.200 268.000 260.400 L 268.000 265.600 265.400 265.600 L 262.800 265.600 262.800 253.600 L 262.800 241.600 265.400 241.600 L 268.000 241.600 268.000 246.014 M309.600 253.600 L 309.600 265.600 307.000 265.600 L 304.400 265.600 304.400 253.600 L 304.400 241.600 307.000 241.600 L 309.600 241.600 309.600 253.600 M323.600 249.182 L 327.800 256.564 328.000 249.182 L 328.200 241.800 330.800 241.800 L 333.400 241.800 333.400 253.600 L 333.400 265.400 330.600 265.400 L 327.800 265.400 324.690 260.000 C 322.980 257.030,321.000 253.610,320.290 252.400 L 319.000 250.200 318.800 257.800 L 318.600 265.400 316.200 265.400 L 313.800 265.400 313.694 253.482 L 313.588 241.565 316.494 241.682 L 319.400 241.800 323.600 249.182 M355.000 244.000 L 355.000 246.200 351.500 246.316 L 348.000 246.431 348.000 256.034 L 348.000 265.637 345.300 265.518 L 342.600 265.400 342.493 255.900 L 342.386 246.400 339.036 246.400 C 335.404 246.400,335.200 246.272,335.200 244.000 C 335.200 241.475,334.756 241.576,345.345 241.693 L 355.000 241.800 355.000 244.000 M362.893 251.300 L 363.000 261.000 368.921 261.111 L 374.841 261.222 374.721 263.311 L 374.600 265.400 366.100 265.508 L 357.600 265.616 357.600 253.608 L 357.600 241.600 360.193 241.600 L 362.786 241.600 362.893 251.300 " stroke="none" fill="#fbfbfb" fill-rule="evenodd"></path><path id="path2" d="M100.276 81.500 C 100.182 81.665,99.884 82.790,99.614 84.000 C 98.853 87.407,97.249 94.341,96.607 97.000 C 96.289 98.320,95.572 101.380,95.015 103.800 C 93.214 111.622,91.976 116.929,91.190 120.200 C 90.177 124.415,89.109 129.000,87.600 135.600 C 86.150 141.942,85.006 146.862,84.204 150.200 C 83.167 154.520,81.671 160.901,80.407 166.400 C 78.835 173.239,77.738 177.945,77.004 181.000 C 76.687 182.320,75.972 185.380,75.414 187.800 C 73.189 197.454,72.794 199.158,71.840 203.200 C 71.295 205.510,70.382 209.380,69.812 211.800 C 69.241 214.220,68.420 217.646,67.987 219.413 C 67.554 221.180,67.200 222.916,67.200 223.270 C 67.200 224.381,66.641 224.400,34.367 224.400 L 2.800 224.400 2.800 228.576 C 2.800 230.873,2.935 232.831,3.100 232.926 C 3.265 233.021,19.323 232.987,38.785 232.850 L 74.170 232.600 74.476 231.200 C 75.445 226.757,78.336 214.195,79.401 209.800 C 79.720 208.480,80.527 204.970,81.193 202.000 C 81.858 199.030,82.665 195.520,82.985 194.200 C 84.010 189.968,85.134 185.139,86.384 179.600 C 87.055 176.630,87.870 173.120,88.196 171.800 C 88.523 170.480,89.519 166.250,90.411 162.400 C 91.303 158.550,92.369 153.960,92.781 152.200 C 93.193 150.440,94.014 146.930,94.606 144.400 C 95.198 141.870,96.005 138.360,96.400 136.600 C 97.092 133.514,98.392 127.922,100.072 120.800 C 100.513 118.930,101.134 116.233,101.451 114.807 C 101.768 113.380,102.174 112.066,102.353 111.887 C 102.634 111.606,103.804 116.950,104.612 122.200 C 104.822 123.559,105.547 127.374,106.226 130.684 C 106.406 131.563,106.416 131.562,108.176 130.374 C 109.149 129.717,110.944 128.738,112.165 128.199 C 114.199 127.299,114.368 127.125,114.200 126.109 C 114.099 125.499,113.656 123.020,113.217 120.600 C 112.777 118.180,112.239 115.120,112.020 113.800 C 111.800 112.480,111.341 109.780,110.999 107.800 C 110.656 105.820,109.930 101.590,109.384 98.400 C 108.838 95.210,108.129 91.250,107.810 89.600 C 107.490 87.950,107.117 85.700,106.980 84.600 C 106.542 81.060,106.690 81.200,103.397 81.200 C 101.774 81.200,100.370 81.335,100.276 81.500 M116.081 141.702 C 113.464 144.856,114.753 153.792,118.305 157.122 C 119.775 158.500,119.802 158.121,118.675 151.911 C 118.105 148.770,117.517 145.300,117.370 144.200 C 117.018 141.584,116.696 140.961,116.081 141.702 M114.129 178.100 C 115.540 185.968,116.726 193.017,118.384 203.400 C 119.702 211.648,119.920 211.818,126.500 209.737 C 128.725 209.033,128.692 209.213,127.634 203.520 C 127.213 201.254,126.563 197.600,126.190 195.400 C 125.817 193.200,125.122 189.110,124.646 186.310 C 123.624 180.301,124.047 180.842,118.607 178.594 C 113.435 176.456,113.842 176.501,114.129 178.100 M219.000 210.799 C 208.883 219.486,194.493 221.977,182.056 217.194 C 179.389 216.169,173.009 216.534,170.786 217.840 C 167.408 219.823,160.906 237.297,153.982 263.000 C 153.567 264.540,152.851 267.150,152.391 268.800 C 151.146 273.267,146.718 290.218,145.443 295.400 C 144.656 298.600,144.165 299.215,143.890 297.345 C 143.764 296.495,143.190 293.100,142.612 289.800 C 140.683 278.771,140.035 275.040,138.997 269.000 C 137.283 259.031,136.499 254.533,133.413 237.000 C 132.832 233.700,132.188 229.920,131.981 228.600 C 131.774 227.280,131.301 224.694,130.930 222.853 L 130.255 219.506 128.228 219.749 C 127.112 219.883,125.055 219.995,123.657 219.997 L 121.113 220.000 121.397 221.100 C 121.552 221.705,122.012 224.180,122.418 226.600 C 122.825 229.020,123.619 233.610,124.184 236.800 C 124.748 239.990,125.557 244.717,125.980 247.305 C 126.403 249.893,126.846 252.323,126.964 252.705 C 127.083 253.087,127.449 255.110,127.779 257.200 C 128.109 259.290,128.842 263.610,129.408 266.800 C 129.974 269.990,130.783 274.580,131.207 277.000 C 131.630 279.420,132.437 284.010,133.000 287.200 C 133.562 290.390,134.367 294.980,134.788 297.400 C 135.209 299.820,136.008 304.410,136.563 307.600 C 137.118 310.790,137.778 314.525,138.029 315.900 L 138.485 318.400 143.388 318.400 L 148.290 318.400 148.921 316.300 C 149.268 315.145,150.385 311.230,151.402 307.600 C 152.419 303.970,153.584 299.830,153.991 298.400 C 154.397 296.970,155.214 294.090,155.806 292.000 C 158.061 284.035,159.432 279.214,161.208 273.000 C 163.067 266.493,163.906 263.496,164.118 262.600 C 164.284 261.901,165.065 259.166,168.405 247.600 C 168.818 246.170,169.724 242.930,170.419 240.400 C 171.114 237.870,171.913 235.080,172.195 234.200 C 172.477 233.320,172.836 231.970,172.993 231.200 C 173.960 226.460,175.563 225.600,183.438 225.600 C 193.304 225.600,199.832 224.399,208.600 220.972 C 220.056 216.493,221.754 216.334,226.329 219.314 C 229.769 221.554,235.944 227.401,238.209 230.562 L 239.800 232.784 318.400 232.692 L 397.000 232.600 397.114 228.300 L 397.227 224.000 320.549 224.000 L 243.870 224.000 239.635 219.893 C 228.882 209.463,223.379 207.038,219.000 210.799 " stroke="none" fill="#e4262e" fill-rule="evenodd"></path><path id="path3" d="M117.400 127.399 L 115.800 127.936 117.600 127.668 C 118.590 127.521,121.830 127.400,124.800 127.400 C 127.770 127.400,131.010 127.521,132.000 127.668 L 133.800 127.936 132.200 127.399 C 130.020 126.667,119.580 126.667,117.400 127.399 M113.329 128.530 C 111.765 129.108,111.008 129.817,112.400 129.400 C 113.618 129.035,115.555 128.026,115.000 128.046 C 114.780 128.054,114.028 128.272,113.329 128.530 M135.633 128.558 C 135.973 128.880,138.800 129.952,138.800 129.759 C 138.800 129.649,138.176 129.298,137.413 128.980 C 136.069 128.418,135.291 128.234,135.633 128.558 M109.900 130.229 C 108.405 131.040,108.496 131.378,110.000 130.600 C 110.660 130.259,111.200 129.894,111.200 129.790 C 111.200 129.532,111.157 129.547,109.900 130.229 M141.209 131.430 C 142.414 132.217,144.387 133.792,145.594 134.930 C 146.801 136.069,147.251 136.382,146.594 135.628 C 144.502 133.224,140.393 130.006,139.409 130.002 C 139.194 130.001,140.004 130.644,141.209 131.430 M106.338 132.622 C 104.500 134.127,103.293 135.433,101.924 137.400 C 101.464 138.060,101.930 137.663,102.959 136.518 C 103.988 135.373,105.678 133.709,106.715 132.821 C 109.040 130.828,108.730 130.665,106.338 132.622 M123.256 134.059 C 121.111 134.676,121.984 134.784,124.400 134.200 C 125.610 133.907,126.150 133.669,125.600 133.670 C 125.050 133.671,123.995 133.846,123.256 134.059 M131.400 134.130 C 132.500 134.422,133.850 134.789,134.400 134.945 C 135.371 135.221,135.369 135.211,134.313 134.609 C 133.716 134.268,132.366 133.901,131.313 133.794 L 129.400 133.600 131.400 134.130 M135.600 135.376 C 135.600 135.488,136.095 135.837,136.700 136.151 C 138.400 137.035,141.541 140.325,142.829 142.572 C 143.469 143.688,143.994 144.396,143.996 144.146 C 144.004 143.255,140.705 138.776,139.066 137.452 C 137.349 136.064,135.600 135.017,135.600 135.376 M116.988 138.083 C 115.775 139.519,114.004 143.042,114.013 144.000 C 114.016 144.330,114.451 143.549,114.979 142.265 C 115.903 140.019,116.726 138.760,117.961 137.704 C 118.280 137.431,118.442 137.109,118.321 136.987 C 118.199 136.866,117.599 137.359,116.988 138.083 M100.181 140.037 C 99.829 140.718,99.612 141.345,99.699 141.432 C 99.786 141.519,100.156 140.962,100.522 140.195 C 101.344 138.470,101.059 138.338,100.181 140.037 M149.806 140.812 C 150.582 142.312,150.512 142.422,147.512 144.460 C 145.165 146.054,145.052 146.087,144.483 145.358 C 143.933 144.652,143.910 144.650,144.146 145.333 C 144.286 145.736,144.400 146.141,144.400 146.233 C 144.400 146.325,144.582 146.400,144.805 146.400 C 145.415 146.400,150.800 142.737,150.800 142.321 C 150.800 141.837,149.632 139.600,149.379 139.600 C 149.269 139.600,149.461 140.145,149.806 140.812 M98.793 143.018 C 98.284 144.356,97.834 146.254,98.086 146.000 C 98.394 145.689,99.575 142.000,99.366 142.000 C 99.264 142.000,99.006 142.458,98.793 143.018 M190.045 146.807 C 187.701 147.301,187.355 147.719,189.615 147.326 C 191.831 146.941,198.784 146.921,201.200 147.293 C 202.677 147.521,202.821 147.493,202.000 147.141 C 200.675 146.573,192.268 146.337,190.045 146.807 M345.511 147.974 C 345.882 148.620,346.238 149.095,346.304 149.030 C 346.554 148.779,345.600 146.800,345.229 146.800 C 345.013 146.800,345.140 147.328,345.511 147.974 M184.584 148.160 C 182.653 148.765,180.722 149.826,182.400 149.361 C 182.950 149.208,184.300 148.762,185.400 148.371 C 187.679 147.559,187.034 147.392,184.584 148.160 M206.194 148.578 C 207.730 149.110,209.043 149.491,209.110 149.423 C 209.317 149.216,206.285 148.112,204.800 147.854 C 204.030 147.720,204.657 148.046,206.194 148.578 M343.867 149.267 C 343.505 150.188,343.274 151.007,343.354 151.088 C 343.434 151.168,343.800 150.483,344.167 149.567 C 344.533 148.650,344.764 147.831,344.679 147.746 C 344.594 147.661,344.229 148.345,343.867 149.267 M242.988 148.491 C 242.881 148.771,242.840 164.300,242.897 183.000 L 243.000 217.000 246.000 217.000 L 249.000 217.000 249.200 190.200 C 249.314 174.969,249.545 163.802,249.737 164.330 C 249.922 164.842,250.160 165.173,250.266 165.067 C 250.372 164.961,250.131 164.273,249.729 163.537 C 249.017 162.231,248.998 162.828,248.897 189.500 L 248.794 216.800 245.997 216.800 L 243.200 216.800 243.200 182.600 L 243.200 148.400 250.367 148.400 C 254.862 148.400,257.609 148.553,257.737 148.810 C 257.849 149.036,257.894 148.990,257.837 148.710 C 257.687 147.968,243.268 147.756,242.988 148.491 M301.902 148.299 L 308.804 148.419 308.702 182.509 L 308.600 216.600 302.600 216.600 L 296.600 216.600 296.497 189.700 C 296.430 172.229,296.255 162.800,295.997 162.800 C 295.779 162.800,295.600 162.965,295.600 163.167 C 295.600 163.369,295.479 163.849,295.332 164.233 C 295.150 164.707,295.213 164.839,295.529 164.644 C 295.880 164.427,296.019 170.798,296.097 190.678 L 296.200 217.000 302.600 217.000 L 309.000 217.000 309.102 182.500 L 309.204 148.000 302.102 148.090 L 295.000 148.180 301.902 148.299 M97.350 153.000 C 97.351 155.420,97.416 156.358,97.496 155.085 C 97.576 153.812,97.575 151.832,97.494 150.685 C 97.414 149.538,97.349 150.580,97.350 153.000 M179.500 150.229 C 178.895 150.557,178.400 150.906,178.400 151.004 C 178.400 151.228,180.466 150.363,180.980 149.924 C 181.607 149.390,180.704 149.576,179.500 150.229 M209.776 149.961 C 210.011 150.342,212.400 151.278,212.400 150.989 C 212.400 150.795,210.161 149.600,209.796 149.600 C 209.662 149.600,209.653 149.762,209.776 149.961 M258.014 149.820 C 258.022 150.029,258.299 150.650,258.631 151.200 L 259.233 152.200 258.972 151.200 C 258.699 150.157,257.989 149.133,258.014 149.820 M294.044 150.844 C 293.798 151.551,293.666 152.200,293.752 152.285 C 293.838 152.371,294.109 151.862,294.356 151.156 C 294.602 150.449,294.734 149.800,294.648 149.715 C 294.562 149.629,294.291 150.138,294.044 150.844 M347.035 151.200 C 347.181 151.750,347.554 152.650,347.864 153.200 L 348.429 154.200 348.165 153.200 C 348.019 152.650,347.646 151.750,347.336 151.200 L 346.771 150.200 347.035 151.200 M175.769 152.474 C 173.428 153.990,166.903 160.478,165.877 162.309 C 164.882 164.086,165.274 163.932,166.514 162.058 C 168.242 159.446,172.015 155.628,174.772 153.700 C 177.650 151.686,178.268 151.200,177.949 151.200 C 177.832 151.200,176.851 151.774,175.769 152.474 M190.258 151.852 C 187.380 152.736,188.185 152.860,191.203 151.998 C 192.631 151.591,193.440 151.257,193.000 151.256 C 192.560 151.256,191.326 151.524,190.258 151.852 M199.600 151.980 C 202.693 152.922,202.932 152.948,201.548 152.196 C 200.970 151.882,199.710 151.527,198.748 151.407 C 197.231 151.218,197.343 151.293,199.600 151.980 M212.807 151.319 C 212.920 151.444,214.075 152.267,215.374 153.149 C 219.785 156.143,223.932 160.703,226.040 164.879 C 227.262 167.300,227.875 167.976,227.172 166.127 C 225.876 162.717,220.843 156.731,216.715 153.688 C 214.796 152.274,212.299 150.760,212.807 151.319 M342.025 153.825 C 341.556 155.079,341.251 156.184,341.347 156.280 C 341.443 156.376,341.906 155.429,342.375 154.175 C 342.844 152.921,343.149 151.816,343.053 151.720 C 342.957 151.624,342.494 152.571,342.025 153.825 M114.000 152.353 C 114.000 152.896,115.125 155.200,115.390 155.200 C 115.561 155.200,114.449 152.340,114.158 152.033 C 114.071 151.942,114.000 152.086,114.000 152.353 M186.500 153.596 C 185.785 154.032,185.200 154.475,185.200 154.581 C 185.200 154.686,185.830 154.401,186.600 153.947 C 187.370 153.493,188.000 153.049,188.000 152.960 C 188.000 152.705,187.874 152.758,186.500 153.596 M204.113 153.755 C 204.946 154.267,206.071 155.103,206.613 155.613 C 207.156 156.122,207.600 156.350,207.600 156.118 C 207.600 155.650,203.621 152.793,202.997 152.812 C 202.778 152.819,203.281 153.244,204.113 153.755 M259.628 153.292 C 259.582 153.765,260.886 156.848,261.058 156.675 C 261.145 156.588,260.866 155.725,260.437 154.758 C 260.008 153.791,259.644 153.131,259.628 153.292 M292.267 155.267 C 291.905 156.188,291.674 157.007,291.754 157.088 C 291.834 157.168,292.200 156.483,292.567 155.567 C 292.933 154.650,293.164 153.831,293.079 153.746 C 292.994 153.661,292.629 154.345,292.267 155.267 M348.550 154.800 C 348.901 156.099,350.109 158.824,350.265 158.668 C 350.356 158.578,349.970 157.535,349.409 156.352 C 348.847 155.168,348.461 154.470,348.550 154.800 M182.583 156.777 C 180.688 158.684,177.589 163.293,177.611 164.173 C 177.617 164.408,178.186 163.558,178.877 162.285 C 179.568 161.012,181.199 158.807,182.502 157.385 C 185.310 154.321,185.354 153.989,182.583 156.777 M116.366 156.698 C 117.374 158.176,121.197 161.001,124.287 162.552 C 127.538 164.185,127.339 163.773,124.000 161.959 C 120.548 160.083,119.217 159.127,117.039 156.956 C 115.558 155.479,115.524 155.466,116.366 156.698 M208.015 156.456 C 208.007 156.597,208.724 157.587,209.610 158.656 C 210.495 159.725,211.596 161.374,212.056 162.321 C 212.515 163.267,212.986 163.947,213.101 163.832 C 213.388 163.546,211.015 159.687,209.371 157.767 C 208.633 156.905,208.023 156.315,208.015 156.456 M340.465 157.645 C 339.682 159.735,339.645 160.498,340.408 158.842 C 340.853 157.875,341.128 156.995,341.020 156.886 C 340.911 156.778,340.661 157.119,340.465 157.645 M261.435 158.000 C 261.581 158.550,261.954 159.450,262.264 160.000 L 262.829 161.000 262.565 160.000 C 262.419 159.450,262.046 158.550,261.736 158.000 L 261.171 157.000 261.435 158.000 M290.653 159.335 C 290.346 160.069,289.975 161.104,289.829 161.635 C 289.418 163.122,290.293 161.605,290.996 159.610 C 291.683 157.666,291.434 157.466,290.653 159.335 M350.488 159.600 C 351.187 161.549,353.339 166.394,353.455 166.279 C 353.635 166.098,350.991 159.649,350.586 159.283 C 350.414 159.127,350.369 159.270,350.488 159.600 M98.009 160.046 C 97.972 162.630,104.048 170.455,107.283 171.988 C 107.941 172.300,107.866 172.166,107.017 171.511 C 102.710 168.193,100.589 165.594,98.932 161.600 C 98.430 160.390,98.015 159.691,98.009 160.046 M338.444 162.844 C 338.198 163.551,338.066 164.200,338.152 164.285 C 338.238 164.371,338.509 163.862,338.756 163.156 C 339.002 162.449,339.134 161.800,339.048 161.715 C 338.962 161.629,338.691 162.138,338.444 162.844 M263.435 162.800 C 263.581 163.350,263.954 164.250,264.264 164.800 L 264.829 165.800 264.565 164.800 C 264.419 164.250,264.046 163.350,263.736 162.800 L 263.171 161.800 263.435 162.800 M288.633 164.433 C 288.267 165.350,288.042 166.175,288.133 166.267 C 288.225 166.358,288.600 165.683,288.967 164.767 C 289.333 163.850,289.558 163.025,289.467 162.933 C 289.375 162.842,289.000 163.517,288.633 164.433 M128.538 164.447 C 129.384 164.893,130.168 165.165,130.281 165.052 C 130.476 164.857,127.780 163.580,127.251 163.618 C 127.113 163.627,127.692 164.000,128.538 164.447 M164.181 165.237 C 163.829 165.918,163.612 166.545,163.699 166.632 C 163.786 166.719,164.156 166.162,164.522 165.395 C 165.344 163.670,165.059 163.538,164.181 165.237 M176.814 165.762 C 176.004 167.892,175.993 168.954,176.801 167.047 C 177.256 165.973,177.537 165.003,177.425 164.892 C 177.314 164.780,177.039 165.172,176.814 165.762 M131.304 165.634 C 132.497 166.329,134.800 167.223,134.800 166.991 C 134.800 166.761,131.329 165.191,130.867 165.212 C 130.720 165.219,130.917 165.409,131.304 165.634 M213.861 166.000 C 214.317 167.802,215.252 170.003,214.984 168.644 C 214.859 168.008,214.498 166.928,214.182 166.244 C 213.751 165.308,213.671 165.248,213.861 166.000 M293.227 169.427 C 292.307 171.771,291.635 173.768,291.733 173.866 C 291.830 173.963,292.188 173.269,292.528 172.322 C 292.868 171.375,293.622 169.459,294.204 168.064 C 294.785 166.669,295.179 165.446,295.080 165.346 C 294.980 165.247,294.146 167.083,293.227 169.427 M336.844 166.844 C 336.598 167.551,336.466 168.200,336.552 168.285 C 336.638 168.371,336.909 167.862,337.156 167.156 C 337.402 166.449,337.534 165.800,337.448 165.715 C 337.362 165.629,337.091 166.138,336.844 166.844 M265.035 166.800 C 265.181 167.350,265.554 168.250,265.864 168.800 L 266.429 169.800 266.165 168.800 C 266.019 168.250,265.646 167.350,265.336 166.800 L 264.771 165.800 265.035 166.800 M251.035 167.200 C 251.181 167.750,251.554 168.650,251.864 169.200 L 252.429 170.200 252.165 169.200 C 252.019 168.650,251.646 167.750,251.336 167.200 L 250.771 166.200 251.035 167.200 M287.033 168.433 C 286.667 169.350,286.442 170.175,286.533 170.267 C 286.625 170.358,287.000 169.683,287.367 168.767 C 287.733 167.850,287.958 167.025,287.867 166.933 C 287.775 166.842,287.400 167.517,287.033 168.433 M353.750 167.200 C 354.101 168.499,355.309 171.224,355.465 171.068 C 355.556 170.978,355.170 169.935,354.609 168.752 C 354.047 167.568,353.661 166.870,353.750 167.200 M135.233 167.349 C 135.645 167.717,138.000 168.800,138.000 168.621 C 138.000 168.390,135.782 167.200,135.353 167.200 C 135.196 167.200,135.142 167.267,135.233 167.349 M162.559 168.637 C 162.228 169.428,162.026 170.279,162.110 170.530 C 162.193 170.780,162.552 170.133,162.907 169.093 C 163.664 166.871,163.426 166.560,162.559 168.637 M227.854 168.400 C 227.989 168.950,228.345 169.940,228.645 170.600 C 229.084 171.564,229.143 171.603,228.946 170.800 C 228.811 170.250,228.455 169.260,228.155 168.600 C 227.716 167.636,227.657 167.597,227.854 168.400 M139.200 169.390 C 139.200 169.494,139.785 169.863,140.500 170.210 L 141.800 170.840 140.856 170.020 C 139.971 169.252,139.200 168.958,139.200 169.390 M335.027 171.250 C 334.664 172.157,334.459 172.992,334.572 173.105 C 334.769 173.303,335.174 172.425,335.774 170.500 C 336.247 168.979,335.726 169.503,335.027 171.250 M341.600 170.000 C 341.600 170.220,341.768 170.400,341.973 170.400 C 342.178 170.400,342.465 170.774,342.610 171.230 C 342.754 171.687,342.952 171.982,343.048 171.886 C 343.346 171.588,342.443 169.600,342.010 169.600 C 341.784 169.600,341.600 169.780,341.600 170.000 M215.390 171.000 C 216.135 175.599,216.402 177.602,216.457 179.000 C 216.508 180.288,216.553 180.376,216.691 179.452 C 216.898 178.067,216.122 171.939,215.582 170.692 C 215.245 169.913,215.221 169.952,215.390 171.000 M174.800 173.200 C 174.535 174.769,174.409 176.142,174.519 176.252 C 174.629 176.362,174.935 175.169,175.200 173.600 C 175.465 172.031,175.591 170.658,175.481 170.548 C 175.371 170.438,175.065 171.631,174.800 173.200 M142.174 171.158 C 142.323 171.399,142.816 171.795,143.271 172.038 C 143.862 172.354,144.020 172.356,143.826 172.042 C 143.677 171.801,143.184 171.405,142.729 171.162 C 142.138 170.846,141.980 170.844,142.174 171.158 M266.828 170.892 C 266.782 171.365,268.086 174.448,268.258 174.275 C 268.345 174.188,268.066 173.325,267.637 172.358 C 267.208 171.391,266.844 170.731,266.828 170.892 M285.225 173.025 C 284.756 174.279,284.451 175.384,284.547 175.480 C 284.643 175.576,285.106 174.629,285.575 173.375 C 286.044 172.121,286.349 171.016,286.253 170.920 C 286.157 170.824,285.694 171.771,285.225 173.025 M253.035 172.000 C 253.181 172.550,253.554 173.450,253.864 174.000 L 254.429 175.000 254.165 174.000 C 254.019 173.450,253.646 172.550,253.336 172.000 L 252.771 171.000 253.035 172.000 M355.835 172.400 C 355.981 172.950,356.354 173.850,356.664 174.400 L 357.229 175.400 356.965 174.400 C 356.819 173.850,356.446 172.950,356.136 172.400 L 355.571 171.400 355.835 172.400 M340.233 173.633 C 339.867 174.550,339.642 175.375,339.733 175.467 C 339.825 175.558,340.200 174.883,340.567 173.967 C 340.933 173.050,341.158 172.225,341.067 172.133 C 340.975 172.042,340.600 172.717,340.233 173.633 M108.400 172.579 C 108.400 172.689,108.940 173.059,109.600 173.400 C 110.260 173.741,110.800 173.931,110.800 173.821 C 110.800 173.711,110.260 173.341,109.600 173.000 C 108.940 172.659,108.400 172.469,108.400 172.579 M146.791 174.908 C 148.217 176.389,149.455 177.600,149.543 177.600 C 149.975 177.600,147.527 174.883,145.969 173.634 C 144.520 172.473,144.669 172.703,146.791 174.908 M343.435 173.200 C 343.581 173.750,343.954 174.650,344.264 175.200 L 344.829 176.200 344.565 175.200 C 344.419 174.650,344.046 173.750,343.736 173.200 L 343.171 172.200 343.435 173.200 M161.060 173.388 C 160.929 173.730,160.730 175.223,160.619 176.705 L 160.417 179.400 160.985 176.210 C 161.532 173.135,161.560 172.085,161.060 173.388 M333.225 175.825 C 332.756 177.079,332.442 178.175,332.527 178.261 C 332.613 178.346,333.073 177.396,333.550 176.150 C 334.027 174.904,334.341 173.808,334.248 173.714 C 334.154 173.621,333.694 174.571,333.225 175.825 M229.923 176.400 C 230.280 179.749,230.278 185.883,229.919 189.200 C 229.689 191.323,229.718 191.580,230.076 190.600 C 230.663 188.997,230.673 176.121,230.089 174.800 C 229.737 174.006,229.703 174.335,229.923 176.400 M112.576 175.020 C 113.436 175.662,114.168 175.796,113.830 175.248 C 113.710 175.055,113.205 174.794,112.706 174.668 C 111.832 174.448,111.827 174.460,112.576 175.020 M268.635 175.600 C 268.781 176.150,269.154 177.050,269.464 177.600 L 270.029 178.600 269.765 177.600 C 269.619 177.050,269.246 176.150,268.936 175.600 L 268.371 174.600 268.635 175.600 M254.400 175.271 C 254.400 175.679,255.604 178.400,255.785 178.400 C 256.036 178.400,255.154 175.870,254.745 175.420 C 254.555 175.211,254.400 175.144,254.400 175.271 M290.233 176.833 C 289.867 177.750,289.642 178.575,289.733 178.667 C 289.825 178.758,290.200 178.083,290.567 177.167 C 290.933 176.250,291.158 175.425,291.067 175.333 C 290.975 175.242,290.600 175.917,290.233 176.833 M116.000 176.536 C 116.550 176.846,117.450 177.219,118.000 177.365 L 119.000 177.629 118.000 177.064 C 117.450 176.754,116.550 176.381,116.000 176.235 L 115.000 175.971 116.000 176.536 M283.433 177.633 C 283.067 178.550,282.842 179.375,282.933 179.467 C 283.025 179.558,283.400 178.883,283.767 177.967 C 284.133 177.050,284.358 176.225,284.267 176.133 C 284.175 176.042,283.800 176.717,283.433 177.633 M338.650 177.591 C 337.747 179.847,337.887 180.183,338.837 178.042 C 339.266 177.075,339.545 176.212,339.458 176.125 C 339.371 176.038,339.008 176.698,338.650 177.591 M345.044 177.200 C 345.178 177.750,345.626 178.920,346.039 179.800 C 346.452 180.680,346.676 180.951,346.537 180.402 C 346.398 179.853,345.950 178.683,345.541 177.802 C 345.133 176.921,344.909 176.650,345.044 177.200 M357.835 177.200 C 357.981 177.750,358.354 178.650,358.664 179.200 L 359.229 180.200 358.965 179.200 C 358.819 178.650,358.446 177.750,358.136 177.200 L 357.571 176.200 357.835 177.200 M124.775 180.414 C 135.239 185.593,138.371 192.005,135.420 202.201 C 135.292 202.640,135.480 202.370,135.838 201.600 C 139.918 192.801,132.616 181.449,120.800 178.224 C 120.250 178.074,122.039 179.059,124.775 180.414 M174.148 182.400 C 174.148 184.710,174.214 185.655,174.295 184.500 C 174.376 183.345,174.376 181.455,174.295 180.300 C 174.214 179.145,174.148 180.090,174.148 182.400 M256.235 179.600 C 256.381 180.150,256.754 181.050,257.064 181.600 L 257.629 182.600 257.365 181.600 C 257.219 181.050,256.846 180.150,256.536 179.600 L 255.971 178.600 256.235 179.600 M270.042 179.000 C 270.046 179.220,270.486 180.300,271.020 181.400 C 271.554 182.500,271.880 182.950,271.745 182.400 C 271.462 181.254,270.032 178.397,270.042 179.000 M331.665 179.645 C 330.877 181.749,330.859 182.497,331.636 180.864 C 332.090 179.909,332.363 179.029,332.242 178.909 C 332.121 178.788,331.861 179.119,331.665 179.645 M288.633 180.833 C 288.267 181.750,288.042 182.575,288.133 182.667 C 288.225 182.758,288.600 182.083,288.967 181.167 C 289.333 180.250,289.558 179.425,289.467 179.333 C 289.375 179.242,289.000 179.917,288.633 180.833 M281.833 181.633 C 281.467 182.550,281.242 183.375,281.333 183.467 C 281.425 183.558,281.800 182.883,282.167 181.967 C 282.533 181.050,282.758 180.225,282.667 180.133 C 282.575 180.042,282.200 180.717,281.833 181.633 M359.644 181.609 C 359.900 182.374,360.270 183.176,360.465 183.391 C 360.661 183.606,360.612 183.156,360.356 182.391 C 360.100 181.626,359.730 180.824,359.535 180.609 C 359.339 180.394,359.388 180.844,359.644 181.609 M151.890 182.729 C 152.252 183.860,152.623 184.711,152.714 184.619 C 152.930 184.404,152.004 181.509,151.568 181.036 C 151.384 180.837,151.529 181.598,151.890 182.729 M336.640 182.663 C 336.283 183.711,336.148 184.396,336.341 184.185 C 336.785 183.696,337.655 181.122,337.447 180.913 C 337.361 180.827,336.998 181.614,336.640 182.663 M347.035 182.400 C 347.181 182.950,347.554 183.850,347.864 184.400 L 348.429 185.400 348.165 184.400 C 348.019 183.850,347.646 182.950,347.336 182.400 L 346.771 181.400 347.035 182.400 M329.850 184.391 C 328.947 186.647,329.087 186.983,330.037 184.842 C 330.466 183.875,330.745 183.012,330.658 182.925 C 330.571 182.838,330.208 183.498,329.850 184.391 M287.033 184.833 C 286.667 185.750,286.442 186.575,286.533 186.667 C 286.625 186.758,287.000 186.083,287.367 185.167 C 287.733 184.250,287.958 183.425,287.867 183.333 C 287.775 183.242,287.400 183.917,287.033 184.833 M258.000 183.766 C 258.000 183.931,258.515 185.266,259.144 186.733 C 259.774 188.200,260.408 189.741,260.554 190.157 C 260.699 190.574,260.909 190.825,261.019 190.715 C 261.129 190.605,260.574 189.008,259.786 187.167 C 258.385 183.894,258.000 183.161,258.000 183.766 M272.235 184.400 C 272.381 184.950,272.754 185.850,273.064 186.400 L 273.629 187.400 273.365 186.400 C 273.219 185.850,272.846 184.950,272.536 184.400 L 271.971 183.400 272.235 184.400 M280.025 186.225 C 279.556 187.479,279.242 188.575,279.327 188.660 C 279.412 188.745,279.861 187.784,280.325 186.525 C 280.789 185.266,281.103 184.170,281.023 184.090 C 280.943 184.010,280.494 184.971,280.025 186.225 M361.035 184.800 C 361.181 185.350,361.554 186.250,361.864 186.800 L 362.429 187.800 362.165 186.800 C 362.019 186.250,361.646 185.350,361.336 184.800 L 360.771 183.800 361.035 184.800 M216.084 188.700 C 215.815 191.065,215.507 193.540,215.400 194.200 C 215.294 194.860,215.464 194.516,215.778 193.435 C 216.323 191.563,217.085 184.400,216.739 184.400 C 216.648 184.400,216.353 186.335,216.084 188.700 M160.440 186.880 C 160.401 188.329,161.154 192.580,161.405 192.328 C 161.475 192.257,161.295 190.670,161.006 188.800 C 160.686 186.733,160.464 185.980,160.440 186.880 M348.635 186.400 C 348.781 186.950,349.154 187.850,349.464 188.400 L 350.029 189.400 349.765 188.400 C 349.619 187.850,349.246 186.950,348.936 186.400 L 348.371 185.400 348.635 186.400 M334.667 187.667 C 334.305 188.588,334.074 189.407,334.154 189.488 C 334.234 189.568,334.600 188.883,334.967 187.967 C 335.333 187.050,335.564 186.231,335.479 186.146 C 335.394 186.061,335.029 186.745,334.667 187.667 M285.253 189.253 C 284.780 190.393,284.458 191.392,284.539 191.472 C 284.620 191.553,285.073 190.686,285.547 189.547 C 286.020 188.407,286.342 187.408,286.261 187.328 C 286.180 187.247,285.727 188.114,285.253 189.253 M153.346 191.400 C 153.347 193.600,153.414 194.449,153.495 193.287 C 153.576 192.124,153.576 190.324,153.493 189.287 C 153.411 188.249,153.345 189.200,153.346 191.400 M327.858 189.304 C 326.928 191.740,327.080 192.204,328.036 189.847 C 328.472 188.773,328.758 187.824,328.672 187.738 C 328.586 187.652,328.220 188.357,327.858 189.304 M274.235 189.200 C 274.381 189.750,274.754 190.650,275.064 191.200 L 275.629 192.200 275.365 191.200 C 275.219 190.650,274.846 189.750,274.536 189.200 L 273.971 188.200 274.235 189.200 M174.440 189.521 C 174.393 190.607,175.604 196.130,175.838 195.896 C 175.926 195.807,175.657 194.130,175.239 192.167 C 174.822 190.205,174.462 189.014,174.440 189.521 M363.035 189.600 C 363.181 190.150,363.554 191.050,363.864 191.600 L 364.429 192.600 364.165 191.600 C 364.019 191.050,363.646 190.150,363.336 189.600 L 362.771 188.600 363.035 189.600 M278.044 191.244 C 277.798 191.951,277.666 192.600,277.752 192.685 C 277.838 192.771,278.109 192.262,278.356 191.556 C 278.602 190.849,278.734 190.200,278.648 190.115 C 278.562 190.029,278.291 190.538,278.044 191.244 M333.033 191.633 C 332.667 192.550,332.442 193.375,332.533 193.467 C 332.625 193.558,333.000 192.883,333.367 191.967 C 333.733 191.050,333.958 190.225,333.867 190.133 C 333.775 190.042,333.400 190.717,333.033 191.633 M350.433 190.651 C 350.415 190.899,350.671 191.751,351.002 192.544 L 351.605 193.986 342.102 194.104 L 332.600 194.221 342.200 194.211 C 351.577 194.200,351.797 194.181,351.660 193.400 C 351.471 192.319,350.474 190.086,350.433 190.651 M261.350 191.600 C 261.701 192.899,262.909 195.624,263.065 195.468 C 263.156 195.378,262.770 194.335,262.209 193.152 C 261.647 191.968,261.261 191.270,261.350 191.600 M283.427 193.650 C 283.064 194.557,282.859 195.392,282.972 195.505 C 283.169 195.703,283.574 194.825,284.174 192.900 C 284.647 191.379,284.126 191.903,283.427 193.650 M326.228 193.300 C 325.935 194.015,325.576 195.050,325.429 195.600 C 325.030 197.094,325.876 195.653,326.596 193.610 C 327.274 191.688,326.986 191.446,326.228 193.300 M275.826 193.200 C 276.149 194.425,276.687 195.046,277.082 194.652 C 277.244 194.489,277.187 194.231,276.954 194.078 C 276.722 193.925,276.313 193.440,276.047 193.000 C 275.599 192.261,275.582 192.277,275.826 193.200 M228.239 195.468 C 227.551 197.485,227.617 198.342,228.319 196.513 C 228.958 194.847,229.278 193.600,229.065 193.600 C 228.960 193.600,228.589 194.441,228.239 195.468 M364.828 193.692 C 364.782 194.165,366.086 197.248,366.258 197.075 C 366.345 196.988,366.066 196.125,365.637 195.158 C 365.208 194.191,364.844 193.531,364.828 193.692 M162.226 195.300 C 162.751 196.984,163.180 198.000,163.366 198.000 C 163.468 198.000,163.275 197.190,162.938 196.200 C 162.324 194.397,161.699 193.607,162.226 195.300 M214.257 197.657 C 213.890 198.793,213.664 199.797,213.754 199.888 C 213.845 199.978,214.225 199.129,214.600 198.000 C 214.975 196.871,215.201 195.868,215.103 195.770 C 215.005 195.671,214.624 196.521,214.257 197.657 M263.200 196.066 C 263.200 196.176,264.021 198.231,265.024 200.633 C 266.027 203.035,267.130 205.682,267.474 206.517 C 267.818 207.351,268.169 207.964,268.254 207.879 C 268.339 207.794,267.322 205.142,265.994 201.986 C 263.794 196.755,263.200 195.498,263.200 196.066 M281.625 198.225 C 281.156 199.479,280.842 200.575,280.927 200.661 C 281.013 200.746,281.473 199.796,281.950 198.550 C 282.427 197.304,282.741 196.208,282.648 196.114 C 282.554 196.021,282.094 196.971,281.625 198.225 M176.235 197.600 C 176.381 198.150,176.754 199.050,177.064 199.600 L 177.629 200.600 177.365 199.600 C 177.219 199.050,176.846 198.150,176.536 197.600 L 175.971 196.600 176.235 197.600 M324.233 198.433 C 323.867 199.350,323.642 200.175,323.733 200.267 C 323.825 200.358,324.200 199.683,324.567 198.767 C 324.933 197.850,325.158 197.025,325.067 196.933 C 324.975 196.842,324.600 197.517,324.233 198.433 M366.400 197.671 C 366.400 198.079,367.604 200.800,367.785 200.800 C 368.036 200.800,367.154 198.270,366.745 197.820 C 366.555 197.611,366.400 197.544,366.400 197.671 M152.036 199.639 C 151.765 200.543,151.435 201.564,151.303 201.907 C 151.159 202.285,151.229 202.429,151.483 202.272 C 151.915 202.006,152.956 198.423,152.682 198.149 C 152.597 198.064,152.306 198.735,152.036 199.639 M226.786 199.101 C 225.942 200.794,225.939 200.800,226.166 200.800 C 226.465 200.800,227.695 198.362,227.497 198.163 C 227.408 198.074,227.088 198.496,226.786 199.101 M163.600 198.553 C 163.600 198.982,164.790 201.200,165.021 201.200 C 165.131 201.200,164.923 200.615,164.559 199.900 C 163.817 198.440,163.600 198.136,163.600 198.553 M329.544 200.233 C 329.098 201.242,328.819 202.152,328.924 202.258 C 329.029 202.363,329.428 201.630,329.810 200.630 L 330.504 198.812 341.952 198.700 L 353.400 198.587 341.878 198.494 L 330.355 198.400 329.544 200.233 M354.254 200.000 C 354.389 200.550,354.745 201.540,355.045 202.200 C 355.484 203.164,355.543 203.203,355.346 202.400 C 355.211 201.850,354.855 200.860,354.555 200.200 C 354.116 199.236,354.057 199.197,354.254 200.000 M100.056 202.007 L 96.771 204.413 97.943 206.107 C 98.588 207.038,99.610 208.250,100.216 208.800 C 100.822 209.350,100.397 208.647,99.273 207.238 C 96.885 204.244,96.776 204.684,100.549 202.087 L 103.540 200.028 104.575 201.793 C 105.144 202.764,105.815 203.686,106.067 203.841 C 106.582 204.160,106.448 203.912,104.688 201.300 C 103.306 199.248,103.958 199.149,100.056 202.007 M322.633 202.433 C 322.267 203.350,322.042 204.175,322.133 204.267 C 322.225 204.358,322.600 203.683,322.967 202.767 C 323.333 201.850,323.558 201.025,323.467 200.933 C 323.375 200.842,323.000 201.517,322.633 202.433 M212.278 202.605 C 211.912 203.372,211.695 204.000,211.796 204.000 C 212.070 204.000,213.284 201.551,213.101 201.368 C 213.014 201.281,212.644 201.838,212.278 202.605 M224.635 202.819 C 224.045 203.710,222.916 205.154,222.126 206.030 C 221.335 206.905,220.775 207.708,220.882 207.815 C 220.988 207.921,221.884 206.972,222.874 205.704 C 224.915 203.088,226.184 201.200,225.899 201.200 C 225.793 201.200,225.224 201.929,224.635 202.819 M280.128 201.900 C 279.993 202.285,279.638 203.207,279.341 203.949 C 278.709 205.525,278.652 206.095,279.226 205.110 C 279.795 204.134,280.803 201.200,280.570 201.200 C 280.463 201.200,280.264 201.515,280.128 201.900 M368.235 202.000 C 368.381 202.550,368.754 203.450,369.064 204.000 L 369.629 205.000 369.365 204.000 C 369.219 203.450,368.846 202.550,368.536 202.000 L 367.971 201.000 368.235 202.000 M165.810 202.700 C 167.549 205.425,170.432 208.678,172.995 210.808 C 173.652 211.353,172.721 210.244,170.927 208.343 C 169.132 206.441,167.197 204.146,166.627 203.243 C 166.057 202.339,165.482 201.600,165.349 201.600 C 165.216 201.600,165.424 202.095,165.810 202.700 M178.000 201.900 C 178.000 202.091,178.261 202.596,178.580 203.024 C 179.140 203.773,179.152 203.768,178.932 202.894 C 178.704 201.991,178.000 201.240,178.000 201.900 M150.267 204.228 C 149.197 206.471,146.664 209.695,144.338 211.771 C 143.162 212.821,142.761 213.307,143.448 212.850 C 146.160 211.045,151.849 203.716,151.111 202.978 C 151.019 202.886,150.639 203.448,150.267 204.228 M327.675 205.075 C 327.211 206.334,326.897 207.430,326.977 207.510 C 327.057 207.590,327.506 206.629,327.975 205.375 C 328.444 204.121,328.758 203.025,328.673 202.940 C 328.588 202.855,328.139 203.816,327.675 205.075 M134.200 204.400 C 133.859 205.060,133.669 205.600,133.779 205.600 C 133.889 205.600,134.259 205.060,134.600 204.400 C 134.941 203.740,135.131 203.200,135.021 203.200 C 134.911 203.200,134.541 203.740,134.200 204.400 M355.835 204.400 C 355.981 204.950,356.354 205.850,356.664 206.400 L 357.229 207.400 356.965 206.400 C 356.819 205.850,356.446 204.950,356.136 204.400 L 355.571 203.400 355.835 204.400 M179.654 204.800 C 180.213 205.970,184.657 210.694,185.752 211.281 C 186.165 211.502,185.161 210.360,183.521 208.742 C 181.881 207.124,180.232 205.350,179.858 204.800 L 179.177 203.800 179.654 204.800 M209.447 206.781 C 207.455 209.317,206.324 210.250,203.053 212.053 C 201.924 212.676,201.163 213.189,201.362 213.193 C 203.158 213.229,209.747 207.833,211.245 205.100 C 211.958 203.799,211.327 204.389,209.447 206.781 M108.200 206.400 C 109.059 207.280,109.852 208.000,109.962 208.000 C 110.072 208.000,109.459 207.280,108.600 206.400 C 107.741 205.520,106.948 204.800,106.838 204.800 C 106.728 204.800,107.341 205.520,108.200 206.400 M369.642 205.400 C 369.646 205.620,370.086 206.700,370.620 207.800 C 371.154 208.900,371.480 209.350,371.345 208.800 C 371.062 207.654,369.632 204.797,369.642 205.400 M320.844 206.844 C 320.598 207.551,320.466 208.200,320.552 208.285 C 320.638 208.371,320.909 207.862,321.156 207.156 C 321.402 206.449,321.534 205.800,321.448 205.715 C 321.362 205.629,321.091 206.138,320.844 206.844 M277.833 207.633 C 277.467 208.550,277.242 209.375,277.333 209.467 C 277.425 209.558,277.800 208.883,278.167 207.967 C 278.533 207.050,278.758 206.225,278.667 206.133 C 278.575 206.042,278.200 206.717,277.833 207.633 M131.794 207.512 C 131.131 208.110,130.141 208.919,129.594 209.309 L 128.600 210.018 129.800 209.445 C 130.460 209.129,131.529 208.315,132.175 207.636 C 133.622 206.114,133.417 206.047,131.794 207.512 M357.449 208.400 C 357.581 208.950,358.026 210.120,358.439 211.000 C 358.852 211.880,359.082 212.150,358.951 211.600 C 358.819 211.050,358.374 209.880,357.961 209.000 C 357.548 208.120,357.318 207.850,357.449 208.400 M326.044 209.244 C 325.798 209.951,325.666 210.600,325.752 210.685 C 325.838 210.771,326.109 210.262,326.356 209.556 C 326.602 208.849,326.734 208.200,326.648 208.115 C 326.562 208.029,326.291 208.538,326.044 209.244 M218.378 209.865 L 217.000 211.330 218.700 209.998 C 219.635 209.266,220.400 208.606,220.400 208.533 C 220.400 208.055,219.562 208.607,218.378 209.865 M268.550 208.800 C 268.901 210.099,270.109 212.824,270.265 212.668 C 270.356 212.578,269.970 211.535,269.409 210.352 C 268.847 209.168,268.461 208.470,268.550 208.800 M101.200 210.130 C 101.200 210.369,106.187 214.281,107.100 214.758 C 108.628 215.556,108.100 215.002,105.868 213.465 C 104.695 212.657,103.314 211.547,102.798 210.998 C 101.989 210.137,101.200 209.708,101.200 210.130 M113.836 210.368 C 114.309 210.804,117.204 211.730,117.419 211.514 C 117.511 211.423,116.660 211.052,115.529 210.690 C 114.398 210.329,113.637 210.184,113.836 210.368 M126.600 210.620 L 125.400 211.205 126.600 210.974 C 127.260 210.847,127.971 210.576,128.180 210.372 C 128.742 209.822,128.000 209.939,126.600 210.620 M276.233 211.633 C 275.867 212.550,275.642 213.375,275.733 213.467 C 275.825 213.558,276.200 212.883,276.567 211.967 C 276.933 211.050,277.158 210.225,277.067 210.133 C 276.975 210.042,276.600 210.717,276.233 211.633 M319.000 211.461 C 318.664 212.265,318.477 213.010,318.584 213.117 C 318.752 213.285,319.037 212.671,319.799 210.500 C 320.205 209.344,319.561 210.119,319.000 211.461 M371.750 210.400 C 372.101 211.699,373.309 214.424,373.465 214.268 C 373.556 214.178,373.170 213.135,372.609 211.952 C 372.047 210.768,371.661 210.070,371.750 210.400 M214.103 212.904 C 212.730 213.804,211.675 214.609,211.759 214.693 C 211.957 214.890,216.267 212.138,216.597 211.605 C 216.941 211.049,216.919 211.060,214.103 212.904 M119.700 211.887 C 120.305 211.978,121.295 211.978,121.900 211.887 C 122.505 211.795,122.010 211.720,120.800 211.720 C 119.590 211.720,119.095 211.795,119.700 211.887 M175.400 212.571 C 176.766 213.741,181.302 216.185,182.800 216.558 C 183.350 216.694,182.504 216.190,180.919 215.436 C 179.335 214.682,177.175 213.497,176.119 212.804 C 174.621 211.820,174.463 211.769,175.400 212.571 M186.800 211.853 C 186.800 212.123,189.655 213.278,189.848 213.086 C 189.936 212.997,189.287 212.641,188.404 212.295 C 187.522 211.948,186.800 211.749,186.800 211.853 M324.246 213.846 C 323.409 216.302,323.705 216.598,324.615 214.215 C 325.000 213.207,325.220 212.286,325.103 212.169 C 324.986 212.052,324.600 212.807,324.246 213.846 M359.458 213.600 C 359.886 215.320,360.413 216.520,360.642 216.291 C 360.763 216.171,360.490 215.291,360.036 214.336 C 359.582 213.381,359.322 213.050,359.458 213.600 M270.400 213.271 C 270.400 213.679,271.604 216.400,271.785 216.400 C 272.036 216.400,271.154 213.870,270.745 213.420 C 270.555 213.211,270.400 213.144,270.400 213.271 M139.200 215.072 C 136.267 216.646,135.719 217.039,137.295 216.440 C 139.085 215.760,141.530 214.437,141.796 214.006 C 142.115 213.491,142.254 213.434,139.200 215.072 M192.878 214.060 C 194.092 214.403,197.141 214.392,198.400 214.042 C 198.953 213.888,197.735 213.771,195.678 213.781 C 193.630 213.792,192.370 213.917,192.878 214.060 M274.650 215.591 C 273.747 217.847,273.887 218.183,274.837 216.042 C 275.266 215.075,275.545 214.212,275.458 214.125 C 275.371 214.038,275.008 214.698,274.650 215.591 M317.401 215.596 C 317.262 216.034,317.261 216.574,317.398 216.796 C 317.684 217.260,323.057 217.353,323.340 216.900 C 323.442 216.735,322.170 216.660,320.511 216.733 L 317.497 216.867 317.756 215.833 C 318.060 214.623,317.771 214.431,317.401 215.596 M373.827 215.766 L 374.087 216.800 367.543 216.888 L 361.000 216.977 367.000 217.103 C 374.013 217.251,374.812 217.133,374.515 215.995 C 374.399 215.551,374.138 215.085,373.936 214.960 C 373.725 214.830,373.678 215.173,373.827 215.766 M108.400 215.415 C 108.400 215.765,111.258 216.875,111.510 216.623 C 111.633 216.501,111.635 216.400,111.516 216.400 C 111.396 216.400,110.646 216.128,109.849 215.795 C 109.052 215.462,108.400 215.291,108.400 215.415 M208.200 216.029 C 207.320 216.452,207.050 216.686,207.600 216.549 C 208.733 216.267,210.812 215.225,210.200 215.246 C 209.980 215.253,209.080 215.606,208.200 216.029 M113.000 217.370 C 113.660 217.666,115.010 218.014,116.000 218.144 L 117.800 218.380 116.000 217.858 C 115.010 217.571,113.660 217.222,113.000 217.084 L 111.800 216.833 113.000 217.370 M132.600 217.536 C 131.280 217.882,130.474 218.222,130.808 218.294 C 131.143 218.365,132.493 218.076,133.808 217.652 C 136.673 216.727,135.955 216.659,132.600 217.536 M185.282 217.401 C 186.097 217.700,187.627 218.043,188.682 218.161 C 190.234 218.336,190.028 218.230,187.600 217.605 C 184.115 216.708,183.170 216.625,185.282 217.401 M272.218 217.600 C 272.524 218.694,273.218 219.715,273.479 219.455 C 273.569 219.364,273.259 218.685,272.791 217.945 C 272.092 216.843,271.989 216.781,272.218 217.600 M201.800 217.821 L 199.800 218.365 201.753 218.150 C 203.921 217.911,206.079 217.240,204.600 217.264 C 204.160 217.271,202.900 217.522,201.800 217.821 M118.900 218.676 C 119.285 218.776,119.915 218.776,120.300 218.676 C 120.685 218.575,120.370 218.493,119.600 218.493 C 118.830 218.493,118.515 218.575,118.900 218.676 M193.300 218.694 C 194.345 218.776,196.055 218.776,197.100 218.694 C 198.145 218.612,197.290 218.544,195.200 218.544 C 193.110 218.544,192.255 218.612,193.300 218.694 M247.491 241.489 C 248.201 241.577,249.461 241.579,250.291 241.492 C 251.121 241.405,250.540 241.333,249.000 241.331 C 247.460 241.329,246.781 241.400,247.491 241.489 M195.280 243.900 L 195.400 246.200 198.901 246.225 L 202.402 246.250 199.001 246.109 L 195.600 245.969 195.600 243.984 L 195.600 242.000 205.022 242.000 L 214.444 242.000 214.322 243.900 L 214.200 245.800 210.800 246.034 L 207.400 246.268 211.000 246.234 L 214.600 246.200 214.720 243.900 L 214.840 241.600 205.000 241.600 L 195.160 241.600 195.280 243.900 M217.384 242.097 C 217.276 242.379,217.235 247.738,217.294 254.005 L 217.400 265.400 226.500 265.508 L 235.600 265.615 235.526 263.308 L 235.452 261.000 235.305 263.100 L 235.158 265.200 226.373 265.200 L 217.588 265.200 217.694 253.700 L 217.800 242.200 226.300 242.092 L 234.800 241.984 234.800 243.982 L 234.800 245.980 228.700 246.105 L 222.600 246.230 228.800 246.215 L 235.000 246.200 235.000 244.000 L 235.000 241.800 226.290 241.692 C 219.496 241.608,217.538 241.697,217.384 242.097 M243.548 242.402 C 241.125 243.683,238.383 247.652,238.438 249.800 C 238.449 250.240,238.798 249.645,239.212 248.478 C 240.158 245.815,241.556 244.107,243.939 242.703 C 246.049 241.460,245.758 241.235,243.548 242.402 M262.799 241.900 C 262.799 242.065,263.873 242.139,265.185 242.065 L 267.572 241.930 267.686 246.265 L 267.800 250.600 272.500 250.713 L 277.200 250.825 277.200 246.413 L 277.200 242.000 279.400 242.000 L 281.600 242.000 281.600 253.600 L 281.600 265.200 279.412 265.200 L 277.224 265.200 277.112 260.100 L 277.000 255.000 272.400 255.000 L 267.800 255.000 267.688 260.081 L 267.576 265.162 265.088 265.304 L 262.600 265.446 265.300 265.523 L 268.000 265.600 268.000 260.400 L 268.000 255.200 272.400 255.200 L 276.800 255.200 276.800 260.400 L 276.800 265.600 279.400 265.600 L 282.000 265.600 282.000 253.600 L 282.000 241.600 279.414 241.600 L 276.827 241.600 276.714 245.900 L 276.600 250.200 272.300 250.314 L 268.000 250.427 268.000 246.014 L 268.000 241.600 265.400 241.600 C 263.970 241.600,262.800 241.735,262.799 241.900 M304.399 241.900 C 304.399 242.065,305.479 242.139,306.799 242.064 L 309.200 241.929 309.200 253.545 L 309.200 265.162 306.700 265.304 L 304.200 265.446 306.900 265.523 L 309.600 265.600 309.600 253.600 L 309.600 241.600 307.000 241.600 C 305.570 241.600,304.400 241.735,304.399 241.900 M313.694 253.482 L 313.800 265.400 316.200 265.400 L 318.600 265.400 318.800 257.800 L 319.000 250.200 320.338 252.500 C 321.074 253.765,321.766 254.800,321.876 254.800 C 322.156 254.800,319.640 250.329,318.958 249.614 C 318.480 249.112,318.400 250.183,318.400 257.114 L 318.400 265.200 316.200 265.200 L 314.000 265.200 314.000 253.600 L 314.000 242.000 316.554 242.000 L 319.108 242.000 321.732 246.700 C 323.175 249.285,324.651 251.760,325.012 252.200 C 325.745 253.094,323.531 248.888,321.012 244.600 L 319.367 241.800 316.478 241.682 L 313.588 241.565 313.694 253.482 M328.284 241.850 C 328.128 242.006,328.000 245.354,328.000 249.290 C 328.000 254.393,327.874 256.369,327.560 256.175 C 327.310 256.021,327.354 256.314,327.660 256.852 C 328.132 257.680,328.225 256.812,328.400 250.000 L 328.600 242.200 330.700 242.079 L 332.800 241.958 332.800 253.579 L 332.800 265.200 330.438 265.200 L 328.076 265.200 326.835 263.000 C 326.152 261.790,325.498 260.800,325.383 260.800 C 325.135 260.800,325.748 261.997,327.079 264.118 L 328.033 265.636 330.716 265.518 L 333.400 265.400 333.400 253.600 L 333.400 241.800 330.984 241.683 C 329.655 241.619,328.440 241.694,328.284 241.850 M335.445 242.226 C 335.131 243.045,335.130 244.951,335.443 245.767 C 335.637 246.275,336.350 246.400,339.036 246.400 L 342.386 246.400 342.493 255.900 L 342.600 265.400 345.300 265.518 L 348.000 265.637 348.000 256.034 L 348.000 246.431 351.500 246.316 L 355.000 246.200 355.000 244.000 L 355.000 241.800 345.345 241.693 C 336.803 241.598,335.663 241.660,335.445 242.226 M357.600 241.900 C 357.600 242.065,358.770 242.200,360.200 242.200 C 361.630 242.200,362.800 242.065,362.800 241.900 C 362.800 241.735,361.630 241.600,360.200 241.600 C 358.770 241.600,357.600 241.735,357.600 241.900 M254.162 242.524 C 254.581 242.786,255.571 243.519,256.362 244.152 C 257.622 245.162,257.592 245.100,256.115 243.652 C 255.189 242.744,254.199 242.011,253.915 242.024 C 253.617 242.037,253.721 242.248,254.162 242.524 M354.600 244.000 L 354.600 245.800 351.200 246.000 L 347.800 246.200 347.693 255.700 L 347.586 265.200 345.193 265.200 L 342.800 265.200 342.800 255.616 L 342.800 246.031 339.300 245.916 L 335.800 245.800 335.672 244.462 C 335.425 241.884,335.056 241.975,345.290 242.093 L 354.600 242.200 354.600 244.000 M246.344 246.424 L 245.400 247.247 246.507 246.573 C 247.314 246.081,248.171 245.953,249.681 246.098 C 251.723 246.294,252.161 246.589,253.476 248.653 C 253.785 249.136,253.961 249.209,253.976 248.860 C 254.086 246.341,248.487 244.554,246.344 246.424 M258.181 246.887 C 259.212 249.365,259.092 249.545,256.300 249.704 L 253.800 249.846 256.553 249.923 L 259.305 250.000 259.083 248.345 C 258.961 247.435,258.569 246.400,258.212 246.045 C 257.613 245.450,257.610 245.515,258.181 246.887 M244.186 248.827 C 243.837 249.502,243.615 250.246,243.694 250.481 C 243.772 250.716,244.128 250.164,244.486 249.254 C 245.250 247.309,245.089 247.081,244.186 248.827 M222.399 250.900 C 222.400 251.065,224.920 251.200,228.000 251.200 L 233.600 251.200 233.600 253.160 L 233.600 255.119 228.115 255.178 C 225.099 255.210,222.543 255.323,222.437 255.430 C 222.331 255.536,224.844 255.573,228.022 255.511 L 233.800 255.400 233.919 253.121 L 234.039 250.842 228.219 250.721 C 225.018 250.654,222.399 250.735,222.399 250.900 M238.128 254.000 C 238.128 255.430,238.201 256.015,238.289 255.300 C 238.378 254.585,238.378 253.415,238.289 252.700 C 238.201 251.985,238.128 252.570,238.128 254.000 M243.320 254.000 C 243.320 255.210,243.395 255.705,243.487 255.100 C 243.578 254.495,243.578 253.505,243.487 252.900 C 243.395 252.295,243.320 252.790,243.320 254.000 M325.609 253.500 C 325.614 253.665,325.985 254.250,326.433 254.800 L 327.248 255.800 326.614 254.500 C 326.011 253.265,325.589 252.845,325.609 253.500 M322.600 256.400 C 322.941 257.060,323.311 257.600,323.421 257.600 C 323.531 257.600,323.341 257.060,323.000 256.400 C 322.659 255.740,322.289 255.200,322.179 255.200 C 322.069 255.200,322.259 255.740,322.600 256.400 M243.609 257.120 C 243.585 258.552,246.146 261.612,247.354 261.593 C 247.599 261.590,247.192 261.197,246.448 260.721 C 245.705 260.245,244.764 259.123,244.357 258.228 C 243.950 257.333,243.614 256.834,243.609 257.120 M238.402 257.433 C 238.407 258.254,239.254 260.786,239.594 260.996 C 239.795 261.120,239.672 260.362,239.321 259.311 C 238.664 257.340,238.398 256.797,238.402 257.433 M253.515 258.300 C 253.258 258.905,252.677 259.850,252.224 260.400 L 251.400 261.400 252.466 260.462 C 253.053 259.946,253.641 259.091,253.774 258.562 C 253.995 257.680,254.214 257.600,256.415 257.600 L 258.815 257.600 258.567 258.700 C 257.368 264.015,251.494 267.046,245.400 265.495 C 244.330 265.222,244.287 265.244,245.000 265.695 C 249.614 268.610,259.122 263.388,259.191 257.900 C 259.208 256.548,254.107 256.908,253.515 258.300 M324.200 259.200 C 324.541 259.860,324.911 260.400,325.021 260.400 C 325.131 260.400,324.941 259.860,324.600 259.200 C 324.259 258.540,323.889 258.000,323.779 258.000 C 323.669 258.000,323.859 258.540,324.200 259.200 M374.338 263.192 L 374.476 265.184 366.038 265.304 L 357.599 265.424 366.100 265.412 L 374.600 265.400 374.721 263.300 C 374.787 262.145,374.697 261.200,374.521 261.200 C 374.344 261.200,374.262 262.096,374.338 263.192 M240.000 261.813 C 240.000 262.139,242.733 264.800,243.068 264.800 C 243.230 264.800,242.659 264.080,241.800 263.200 C 240.234 261.597,240.000 261.416,240.000 261.813 M203.491 265.489 C 204.201 265.577,205.461 265.579,206.291 265.492 C 207.121 265.405,206.540 265.333,205.000 265.331 C 203.460 265.329,202.781 265.400,203.491 265.489 " stroke="none" fill="#9fa2bb" fill-rule="evenodd"></path><path id="path4" d="M99.999 81.100 C 99.999 81.265,101.374 81.340,103.055 81.266 C 105.285 81.169,106.203 81.277,106.450 81.666 C 106.709 82.075,106.789 82.036,106.794 81.500 C 106.799 80.888,106.374 80.800,103.400 80.800 C 101.530 80.800,100.000 80.935,99.999 81.100 M107.095 85.195 C 107.223 86.403,107.556 88.293,107.833 89.395 L 108.338 91.400 108.105 89.205 C 107.977 87.997,107.644 86.107,107.367 85.005 L 106.862 83.000 107.095 85.195 M98.400 87.400 C 98.142 88.645,98.020 89.753,98.130 89.863 C 98.240 89.973,98.542 89.045,98.800 87.800 C 99.058 86.555,99.180 85.447,99.070 85.337 C 98.960 85.227,98.658 86.155,98.400 87.400 M96.622 95.222 C 96.262 96.805,96.047 98.181,96.145 98.279 C 96.243 98.376,96.618 97.161,96.978 95.578 C 97.338 93.995,97.553 92.619,97.455 92.521 C 97.357 92.424,96.982 93.639,96.622 95.222 M108.853 95.000 C 108.844 95.440,109.091 96.970,109.400 98.400 L 109.963 101.000 109.758 98.741 C 109.537 96.307,108.881 93.594,108.853 95.000 M95.022 102.022 C 94.662 103.605,94.447 104.981,94.545 105.079 C 94.643 105.176,95.018 103.961,95.378 102.378 C 95.738 100.795,95.953 99.419,95.855 99.321 C 95.757 99.224,95.382 100.439,95.022 102.022 M110.568 105.400 C 110.996 108.553,111.694 112.039,111.864 111.869 C 112.073 111.660,110.809 103.871,110.523 103.608 C 110.399 103.493,110.419 104.300,110.568 105.400 M93.200 109.800 C 92.942 111.045,92.820 112.153,92.930 112.263 C 93.040 112.373,93.342 111.445,93.600 110.200 C 93.858 108.955,93.980 107.847,93.870 107.737 C 93.760 107.627,93.458 108.555,93.200 109.800 M102.048 112.526 C 101.377 114.212,101.539 115.214,102.226 113.630 C 102.553 112.877,102.747 112.067,102.658 111.830 C 102.568 111.594,102.294 111.907,102.048 112.526 M112.132 114.400 C 112.263 115.170,112.577 117.025,112.830 118.522 C 113.083 120.019,113.372 121.161,113.473 121.061 C 113.705 120.829,112.455 113.515,112.133 113.219 C 112.002 113.099,112.001 113.630,112.132 114.400 M103.358 117.200 C 104.006 121.542,104.504 124.029,104.688 123.845 C 104.928 123.606,103.649 115.906,103.320 115.609 C 103.193 115.494,103.210 116.210,103.358 117.200 M91.243 118.166 C 90.960 119.429,90.814 120.548,90.919 120.653 C 91.186 120.920,92.109 116.928,91.915 116.346 C 91.828 116.084,91.525 116.903,91.243 118.166 M100.222 120.022 C 99.862 121.605,99.647 122.981,99.745 123.079 C 99.843 123.176,100.218 121.961,100.578 120.378 C 100.938 118.795,101.153 117.419,101.055 117.321 C 100.957 117.224,100.582 118.439,100.222 120.022 M89.422 126.022 C 89.062 127.605,88.847 128.981,88.945 129.079 C 89.043 129.176,89.418 127.961,89.778 126.378 C 90.138 124.795,90.353 123.419,90.255 123.321 C 90.157 123.224,89.782 124.439,89.422 126.022 M98.589 126.989 C 98.216 128.669,97.992 130.125,98.092 130.226 C 98.193 130.326,98.577 129.031,98.947 127.347 C 99.317 125.664,99.541 124.208,99.444 124.111 C 99.348 124.015,98.963 125.310,98.589 126.989 M114.181 125.695 C 114.304 126.798,114.171 127.292,113.674 127.583 C 113.303 127.799,113.180 127.978,113.400 127.982 C 114.569 127.999,114.902 127.295,114.458 125.745 L 114.014 124.200 114.181 125.695 M105.260 127.200 C 105.228 128.458,105.815 131.549,106.150 131.883 C 106.288 132.021,107.166 131.590,108.101 130.925 C 109.035 130.260,110.481 129.396,111.314 129.005 C 112.147 128.615,112.740 128.207,112.633 128.099 C 112.409 127.875,108.148 130.188,107.119 131.092 C 106.366 131.752,106.474 131.979,105.656 128.000 C 105.446 126.980,105.275 126.633,105.260 127.200 M87.789 132.989 C 87.416 134.669,87.192 136.125,87.292 136.226 C 87.393 136.326,87.777 135.031,88.147 133.347 C 88.517 131.664,88.741 130.208,88.644 130.111 C 88.548 130.015,88.163 131.310,87.789 132.989 M96.800 134.600 C 96.542 135.845,96.420 136.953,96.530 137.063 C 96.640 137.173,96.942 136.245,97.200 135.000 C 97.458 133.755,97.580 132.647,97.470 132.537 C 97.360 132.427,97.058 133.355,96.800 134.600 M86.000 140.600 C 85.742 141.845,85.620 142.953,85.730 143.063 C 85.840 143.173,86.142 142.245,86.400 141.000 C 86.658 139.755,86.780 138.647,86.670 138.537 C 86.560 138.427,86.258 139.355,86.000 140.600 M95.022 142.422 C 94.662 144.005,94.447 145.381,94.545 145.479 C 94.643 145.576,95.018 144.361,95.378 142.778 C 95.738 141.195,95.953 139.819,95.855 139.721 C 95.757 139.624,95.382 140.839,95.022 142.422 M115.878 141.223 C 115.709 141.871,115.775 141.953,116.193 141.606 C 116.584 141.282,116.776 141.302,116.930 141.683 C 117.044 141.967,117.151 141.795,117.168 141.300 C 117.208 140.166,116.171 140.104,115.878 141.223 M114.777 144.060 C 114.221 146.096,114.177 150.580,114.700 151.961 C 114.947 152.616,115.010 151.851,114.897 149.561 C 114.805 147.713,114.916 145.395,115.143 144.411 C 115.680 142.081,115.393 141.805,114.777 144.060 M117.653 145.800 C 117.644 146.240,117.891 147.770,118.200 149.200 L 118.763 151.800 118.558 149.541 C 118.337 147.107,117.681 144.394,117.653 145.800 M84.623 146.453 C 83.869 149.749,83.595 151.328,83.748 151.481 C 83.844 151.578,84.218 150.361,84.578 148.778 C 84.938 147.195,85.144 145.811,85.036 145.702 C 84.927 145.594,84.742 145.932,84.623 146.453 M93.200 150.200 C 92.942 151.445,92.807 152.540,92.901 152.634 C 92.995 152.728,93.297 151.800,93.571 150.571 C 93.846 149.343,93.981 148.248,93.871 148.137 C 93.760 148.027,93.458 148.955,93.200 150.200 M82.622 155.222 C 82.262 156.805,82.047 158.181,82.145 158.279 C 82.243 158.376,82.618 157.161,82.978 155.578 C 83.338 153.995,83.553 152.619,83.455 152.521 C 83.357 152.424,82.982 153.639,82.622 155.222 M115.787 154.375 C 116.121 155.021,116.576 155.661,116.798 155.799 C 117.020 155.936,116.823 155.407,116.361 154.624 C 115.348 152.907,114.935 152.728,115.787 154.375 M119.351 156.297 C 119.378 157.450,119.535 158.395,119.700 158.397 C 120.075 158.401,120.023 156.531,119.611 155.200 C 119.386 154.471,119.315 154.767,119.351 156.297 M91.406 157.832 C 91.035 159.500,90.816 160.950,90.920 161.054 C 91.095 161.228,91.588 159.335,92.213 156.100 C 92.719 153.478,92.060 154.893,91.406 157.832 M80.589 163.789 C 80.216 165.469,79.992 166.925,80.092 167.026 C 80.193 167.126,80.577 165.831,80.947 164.147 C 81.317 162.464,81.541 161.008,81.444 160.911 C 81.348 160.815,80.963 162.110,80.589 163.789 M89.453 166.253 C 89.083 167.936,88.859 169.392,88.956 169.489 C 89.052 169.585,89.437 168.290,89.811 166.611 C 90.184 164.931,90.408 163.475,90.308 163.374 C 90.207 163.274,89.823 164.569,89.453 166.253 M78.829 171.429 C 78.554 172.657,78.419 173.752,78.529 173.863 C 78.640 173.973,78.942 173.045,79.200 171.800 C 79.458 170.555,79.593 169.460,79.499 169.366 C 79.405 169.272,79.103 170.200,78.829 171.429 M87.789 173.389 C 87.416 175.069,87.192 176.525,87.292 176.626 C 87.393 176.726,87.777 175.431,88.147 173.747 C 88.517 172.064,88.741 170.608,88.644 170.511 C 88.548 170.415,88.163 171.710,87.789 173.389 M77.022 179.222 C 76.662 180.805,76.447 182.181,76.545 182.279 C 76.643 182.376,77.018 181.161,77.378 179.578 C 77.738 177.995,77.953 176.619,77.855 176.521 C 77.757 176.424,77.382 177.639,77.022 179.222 M113.606 177.100 C 113.611 177.644,113.689 177.679,113.955 177.259 C 114.228 176.828,114.480 176.815,115.183 177.191 C 115.670 177.452,116.168 177.565,116.290 177.444 C 116.510 177.223,114.684 176.400,113.974 176.400 C 113.768 176.400,113.603 176.715,113.606 177.100 M117.600 178.136 C 118.150 178.446,119.050 178.819,119.600 178.965 L 120.600 179.229 119.600 178.664 C 119.050 178.354,118.150 177.981,117.600 177.835 L 116.600 177.571 117.600 178.136 M86.029 181.029 C 85.754 182.257,85.619 183.352,85.729 183.463 C 85.840 183.573,86.142 182.645,86.400 181.400 C 86.658 180.155,86.793 179.060,86.699 178.966 C 86.605 178.872,86.303 179.800,86.029 181.029 M114.053 179.400 C 114.044 179.840,114.291 181.370,114.600 182.800 L 115.163 185.400 114.958 183.141 C 114.737 180.707,114.081 177.994,114.053 179.400 M122.495 180.195 C 123.101 180.542,123.697 181.306,123.830 181.910 C 124.231 183.733,124.418 183.889,124.218 182.235 C 124.004 180.460,123.803 180.194,122.400 179.830 C 121.427 179.578,121.430 179.588,122.495 180.195 M75.422 186.022 C 75.062 187.605,74.847 188.981,74.945 189.079 C 75.043 189.176,75.418 187.961,75.778 186.378 C 76.138 184.795,76.353 183.419,76.255 183.321 C 76.157 183.224,75.782 184.439,75.422 186.022 M84.222 188.822 C 83.862 190.405,83.647 191.781,83.745 191.879 C 83.843 191.976,84.218 190.761,84.578 189.178 C 84.938 187.595,85.153 186.219,85.055 186.121 C 84.957 186.024,84.582 187.239,84.222 188.822 M125.028 188.459 C 125.149 189.702,125.411 191.232,125.610 191.859 C 125.870 192.675,125.904 192.323,125.730 190.619 C 125.597 189.310,125.335 187.780,125.148 187.219 C 124.923 186.541,124.882 186.956,125.028 188.459 M115.641 188.304 C 115.576 189.100,116.827 196.561,117.064 196.792 C 117.181 196.907,117.154 196.010,117.004 194.800 C 116.689 192.260,115.702 187.557,115.641 188.304 M73.600 193.800 C 73.342 195.045,73.220 196.153,73.330 196.263 C 73.440 196.373,73.742 195.445,74.000 194.200 C 74.258 192.955,74.380 191.847,74.270 191.737 C 74.160 191.627,73.858 192.555,73.600 193.800 M82.638 195.551 C 81.986 198.420,81.853 199.480,82.189 199.144 C 82.478 198.855,83.638 193.104,83.446 192.912 C 83.353 192.819,82.990 194.007,82.638 195.551 M126.658 197.800 C 127.020 200.954,127.630 203.145,127.365 200.341 C 127.248 199.098,126.990 197.568,126.791 196.941 C 126.516 196.073,126.484 196.278,126.658 197.800 M71.853 201.453 C 71.483 203.136,71.259 204.592,71.356 204.689 C 71.452 204.785,71.837 203.490,72.211 201.811 C 72.584 200.131,72.808 198.675,72.708 198.574 C 72.607 198.474,72.223 199.769,71.853 201.453 M117.666 200.400 C 117.650 200.950,117.877 202.570,118.171 204.000 C 118.464 205.430,118.718 206.150,118.734 205.600 C 118.750 205.050,118.523 203.430,118.229 202.000 C 117.936 200.570,117.682 199.850,117.666 200.400 M80.653 204.253 C 80.283 205.936,80.059 207.392,80.156 207.489 C 80.252 207.585,80.637 206.290,81.011 204.611 C 81.384 202.931,81.608 201.475,81.508 201.374 C 81.407 201.274,81.023 202.569,80.653 204.253 M128.281 206.944 C 128.443 208.356,128.353 208.984,127.952 209.238 C 127.535 209.502,127.525 209.589,127.913 209.594 C 128.723 209.604,128.939 208.494,128.480 206.676 L 128.057 205.000 128.281 206.944 M70.000 209.200 C 69.730 210.324,69.603 211.336,69.716 211.449 C 69.829 211.562,70.123 210.717,70.369 209.569 C 70.952 206.854,70.638 206.540,70.000 209.200 M79.022 211.222 C 78.662 212.805,78.447 214.181,78.545 214.279 C 78.643 214.376,79.018 213.161,79.378 211.578 C 79.738 209.995,79.953 208.619,79.855 208.521 C 79.757 208.424,79.382 209.639,79.022 211.222 M220.634 209.057 C 220.422 209.607,220.481 209.631,220.995 209.204 C 221.833 208.509,224.236 208.883,226.973 210.136 C 228.198 210.697,229.200 211.068,229.200 210.961 C 229.200 209.552,221.132 207.758,220.634 209.057 M119.278 210.200 C 119.466 211.205,123.914 211.211,126.066 210.209 C 126.800 209.868,127.040 209.697,126.600 209.831 C 123.730 210.702,120.229 210.854,119.682 210.132 C 119.153 209.432,119.135 209.435,119.278 210.200 M217.502 211.565 C 216.238 212.612,213.856 214.161,212.209 215.008 C 210.563 215.856,209.284 216.618,209.369 216.702 C 209.830 217.163,217.503 212.412,219.170 210.634 C 220.560 209.151,220.121 209.396,217.502 211.565 M229.600 211.321 C 229.600 211.414,230.905 212.454,232.500 213.633 C 234.095 214.811,237.306 217.626,239.635 219.888 L 243.870 224.000 320.549 224.000 L 397.227 224.000 397.114 228.300 L 397.000 232.600 318.400 232.802 L 239.800 233.003 318.200 233.095 C 361.320 233.146,396.831 233.041,397.114 232.861 C 397.494 232.621,397.599 231.393,397.514 228.168 L 397.400 223.800 320.740 223.699 L 244.079 223.598 240.540 220.147 C 236.628 216.334,229.600 210.664,229.600 211.321 M68.222 216.822 C 67.862 218.405,67.647 219.781,67.745 219.879 C 67.843 219.976,68.218 218.761,68.578 217.178 C 68.938 215.595,69.153 214.219,69.055 214.121 C 68.957 214.024,68.582 215.239,68.222 216.822 M176.000 216.398 C 174.619 216.612,175.004 216.668,177.655 216.638 C 179.555 216.617,180.905 216.468,180.655 216.306 C 180.132 215.969,178.581 215.999,176.000 216.398 M77.200 219.000 C 76.942 220.245,76.807 221.340,76.901 221.434 C 76.995 221.528,77.297 220.600,77.571 219.371 C 77.846 218.143,77.981 217.048,77.871 216.937 C 77.760 216.827,77.458 217.755,77.200 219.000 M170.359 217.706 C 169.112 218.537,165.189 225.293,165.205 226.582 C 165.208 226.812,166.153 225.110,167.305 222.800 C 169.204 218.992,169.567 218.516,171.185 217.700 C 172.166 217.205,172.688 216.800,172.344 216.800 C 172.000 216.800,171.107 217.208,170.359 217.706 M206.266 217.474 C 205.203 217.800,204.426 218.159,204.540 218.274 C 204.760 218.493,208.800 217.255,208.800 216.968 C 208.800 216.734,208.475 216.799,206.266 217.474 M183.800 217.798 C 184.460 218.109,185.360 218.361,185.800 218.357 L 186.600 218.349 185.800 218.034 C 185.360 217.861,184.460 217.610,183.800 217.476 L 182.600 217.233 183.800 217.798 M217.664 217.651 C 215.280 218.215,215.869 218.580,218.316 218.055 C 220.168 217.658,221.191 217.692,223.600 218.232 C 224.339 218.398,224.485 218.339,224.157 218.005 C 223.533 217.370,219.730 217.162,217.664 217.651 M225.590 219.081 C 228.949 221.518,232.785 224.881,235.453 227.725 C 237.142 229.526,237.975 230.278,237.304 229.395 C 235.638 227.205,229.801 221.647,227.600 220.156 C 225.570 218.781,224.071 217.979,225.590 219.081 M189.679 219.260 C 190.854 219.592,199.422 219.586,200.979 219.253 C 201.628 219.114,199.143 219.000,195.458 219.000 C 191.772 219.000,189.172 219.117,189.679 219.260 M212.200 219.607 C 211.308 220.045,211.042 220.284,211.600 220.147 C 212.769 219.859,214.786 218.835,214.200 218.827 C 213.980 218.823,213.080 219.175,212.200 219.607 M121.222 219.533 C 120.990 219.607,120.800 219.826,120.800 220.021 C 120.800 220.216,121.025 220.306,121.300 220.221 C 121.575 220.136,123.715 219.965,126.056 219.840 L 130.312 219.613 130.805 222.224 C 131.076 223.661,131.374 224.759,131.469 224.665 C 131.563 224.571,131.431 223.298,131.177 221.836 L 130.714 219.179 126.179 219.290 C 123.685 219.350,121.454 219.460,121.222 219.533 M207.691 221.283 C 206.530 221.740,205.652 222.185,205.738 222.271 C 205.922 222.456,210.400 220.823,210.400 220.571 C 210.400 220.283,209.885 220.418,207.691 221.283 M121.449 223.123 C 121.577 224.290,121.839 225.730,122.032 226.323 C 122.280 227.083,122.315 226.776,122.151 225.277 C 122.023 224.110,121.761 222.670,121.568 222.077 C 121.320 221.317,121.285 221.624,121.449 223.123 M66.721 223.100 L 66.475 224.000 34.437 224.000 L 2.400 224.000 2.400 228.600 C 2.400 231.130,2.535 233.200,2.700 233.201 C 2.865 233.201,2.944 231.221,2.875 228.801 L 2.750 224.400 34.475 224.394 C 66.311 224.388,67.410 224.339,67.123 222.952 C 66.986 222.288,66.939 222.306,66.721 223.100 M203.200 223.000 C 202.430 223.297,202.070 223.545,202.400 223.552 C 202.730 223.558,203.540 223.317,204.200 223.014 C 205.745 222.307,205.026 222.297,203.200 223.000 M75.453 226.653 C 75.083 228.336,74.859 229.792,74.956 229.889 C 75.052 229.985,75.437 228.690,75.811 227.011 C 76.184 225.331,76.408 223.875,76.308 223.774 C 76.207 223.674,75.823 224.969,75.453 226.653 M193.200 225.031 L 190.200 225.558 193.000 225.357 C 196.210 225.126,199.535 224.473,197.400 224.493 C 196.740 224.499,194.850 224.741,193.200 225.031 M179.717 225.897 C 181.211 225.974,183.551 225.974,184.917 225.896 C 186.282 225.818,185.060 225.755,182.200 225.755 C 179.340 225.756,178.222 225.820,179.717 225.897 M131.874 227.839 C 131.991 228.961,132.328 230.941,132.623 232.239 L 133.159 234.600 132.930 232.268 C 132.803 230.986,132.466 229.006,132.181 227.868 L 131.662 225.800 131.874 227.839 M175.557 226.500 C 175.229 226.775,174.706 227.360,174.396 227.800 C 174.071 228.260,174.418 228.090,175.213 227.400 C 175.974 226.740,176.672 226.155,176.765 226.100 C 176.857 226.045,176.758 226.000,176.543 226.000 C 176.329 226.000,175.885 226.225,175.557 226.500 M164.233 228.833 C 163.867 229.750,163.642 230.575,163.733 230.667 C 163.825 230.758,164.200 230.083,164.567 229.167 C 164.933 228.250,165.158 227.425,165.067 227.333 C 164.975 227.242,164.600 227.917,164.233 228.833 M173.200 230.400 C 172.951 231.324,172.826 232.159,172.921 232.255 C 173.017 232.350,173.290 231.663,173.527 230.727 C 173.765 229.791,173.890 228.957,173.806 228.873 C 173.722 228.788,173.449 229.476,173.200 230.400 M122.958 232.000 C 123.583 236.184,124.101 238.832,124.263 238.670 C 124.493 238.441,123.243 230.703,122.931 230.420 C 122.798 230.299,122.810 231.010,122.958 232.000 M46.000 232.800 L 17.800 233.008 45.876 233.104 C 64.267 233.167,74.038 233.062,74.200 232.800 C 74.336 232.580,74.392 232.443,74.324 232.496 C 74.256 232.549,61.510 232.686,46.000 232.800 M162.400 233.800 C 162.136 234.599,162.010 235.344,162.120 235.454 C 162.230 235.564,162.536 234.999,162.800 234.200 C 163.064 233.401,163.190 232.656,163.080 232.546 C 162.970 232.436,162.664 233.001,162.400 233.800 M171.648 235.860 C 170.892 238.744,170.687 239.800,170.927 239.583 C 171.264 239.279,172.430 234.696,172.223 234.489 C 172.129 234.396,171.871 235.012,171.648 235.860 M133.870 239.381 C 134.003 240.690,134.261 242.220,134.443 242.781 C 134.646 243.409,134.680 242.887,134.530 241.419 C 134.397 240.110,134.139 238.580,133.957 238.019 C 133.754 237.391,133.720 237.913,133.870 239.381 M160.629 239.229 C 160.284 240.388,160.080 241.413,160.174 241.507 C 160.268 241.602,160.627 240.731,160.971 239.571 C 161.316 238.412,161.520 237.387,161.426 237.293 C 161.332 237.198,160.973 238.069,160.629 239.229 M169.633 243.033 C 169.375 244.059,169.239 244.972,169.331 245.064 C 169.422 245.156,169.709 244.392,169.967 243.367 C 170.225 242.341,170.361 241.428,170.269 241.336 C 170.178 241.244,169.891 242.008,169.633 243.033 M125.028 243.659 C 125.149 244.902,125.411 246.432,125.610 247.059 C 125.870 247.875,125.904 247.523,125.730 245.819 C 125.597 244.510,125.335 242.980,125.148 242.419 C 124.923 241.741,124.882 242.156,125.028 243.659 M159.040 244.240 C 158.653 245.467,158.424 246.558,158.531 246.665 C 158.638 246.772,159.023 245.837,159.387 244.587 C 160.247 241.629,159.955 241.337,159.040 244.240 M135.332 248.000 C 135.463 248.770,135.777 250.625,136.030 252.122 C 136.283 253.619,136.572 254.761,136.673 254.661 C 136.905 254.429,135.655 247.115,135.333 246.819 C 135.202 246.699,135.201 247.230,135.332 248.000 M168.002 248.860 C 167.755 249.817,167.451 250.960,167.327 251.400 C 167.202 251.840,167.224 252.084,167.376 251.941 C 167.729 251.609,168.821 247.488,168.612 247.278 C 168.524 247.191,168.250 247.902,168.002 248.860 M156.987 250.987 C 156.623 252.237,156.406 253.340,156.505 253.438 C 156.603 253.537,156.976 252.589,157.333 251.333 C 157.691 250.077,157.907 248.974,157.815 248.882 C 157.723 248.790,157.350 249.737,156.987 250.987 M126.695 253.195 C 126.823 254.403,127.156 256.293,127.433 257.395 L 127.938 259.400 127.705 257.205 C 127.577 255.997,127.244 254.107,126.967 253.005 L 126.462 251.000 126.695 253.195 M155.425 256.425 C 155.047 257.771,154.817 258.951,154.913 259.047 C 155.010 259.143,155.397 258.121,155.775 256.775 C 156.153 255.429,156.383 254.249,156.287 254.153 C 156.190 254.057,155.803 255.079,155.425 256.425 M166.033 255.833 C 165.775 256.859,165.639 257.772,165.731 257.864 C 165.822 257.956,166.109 257.192,166.367 256.167 C 166.625 255.141,166.761 254.228,166.669 254.136 C 166.578 254.044,166.291 254.808,166.033 255.833 M137.449 259.923 C 137.577 261.090,137.839 262.530,138.032 263.123 C 138.280 263.883,138.315 263.576,138.151 262.077 C 138.023 260.910,137.761 259.470,137.568 258.877 C 137.320 258.117,137.285 258.424,137.449 259.923 M164.412 261.489 C 164.139 262.540,163.821 263.760,163.708 264.200 C 163.594 264.640,163.626 264.882,163.778 264.739 C 164.142 264.396,165.297 259.964,165.079 259.746 C 164.986 259.653,164.686 260.437,164.412 261.489 M128.132 261.600 C 128.263 262.370,128.577 264.225,128.830 265.722 C 129.083 267.219,129.372 268.361,129.473 268.261 C 129.705 268.029,128.455 260.715,128.133 260.419 C 128.002 260.299,128.001 260.830,128.132 261.600 M153.435 263.435 C 152.564 266.905,152.887 267.228,153.812 263.812 C 154.202 262.369,154.428 261.095,154.313 260.980 C 154.198 260.865,153.803 261.970,153.435 263.435 M162.802 267.260 C 162.555 268.217,162.251 269.360,162.127 269.800 C 162.002 270.240,162.024 270.484,162.176 270.341 C 162.529 270.009,163.621 265.888,163.412 265.678 C 163.324 265.591,163.050 266.302,162.802 267.260 M152.012 268.689 C 151.739 269.740,151.421 270.960,151.308 271.400 C 151.194 271.840,151.226 272.082,151.378 271.939 C 151.742 271.596,152.897 267.164,152.679 266.946 C 152.586 266.853,152.286 267.637,152.012 268.689 M138.958 268.800 C 139.583 272.984,140.101 275.632,140.263 275.470 C 140.493 275.241,139.243 267.503,138.931 267.220 C 138.798 267.099,138.810 267.810,138.958 268.800 M130.053 272.200 C 130.044 272.640,130.291 274.170,130.600 275.600 L 131.163 278.200 130.958 275.941 C 130.737 273.507,130.081 270.794,130.053 272.200 M160.625 274.825 C 160.247 276.171,160.017 277.351,160.113 277.447 C 160.210 277.543,160.597 276.521,160.975 275.175 C 161.353 273.829,161.583 272.649,161.487 272.553 C 161.390 272.457,161.003 273.479,160.625 274.825 M150.000 276.000 C 149.730 277.124,149.600 278.133,149.710 278.243 C 149.820 278.353,150.130 277.524,150.400 276.400 C 150.670 275.276,150.800 274.267,150.690 274.157 C 150.580 274.047,150.270 274.876,150.000 276.000 M141.042 280.459 C 141.155 281.702,141.401 283.232,141.589 283.859 C 142.155 285.745,142.028 283.702,141.400 280.800 L 140.837 278.200 141.042 280.459 M158.974 280.630 C 158.618 281.856,158.421 282.954,158.537 283.070 C 158.653 283.186,158.950 282.498,159.198 281.540 C 159.445 280.583,159.739 279.485,159.851 279.100 C 159.962 278.715,159.957 278.400,159.838 278.400 C 159.719 278.400,159.331 279.403,158.974 280.630 M148.498 281.897 C 147.889 284.028,147.469 286.236,147.718 286.000 C 148.025 285.709,149.274 280.740,149.087 280.553 C 148.999 280.466,148.735 281.071,148.498 281.897 M131.874 282.639 C 131.991 283.761,132.328 285.741,132.623 287.039 L 133.159 289.400 132.930 287.068 C 132.803 285.786,132.466 283.806,132.181 282.668 L 131.662 280.600 131.874 282.639 M157.203 286.789 C 156.956 287.708,156.822 288.666,156.906 288.919 C 156.991 289.172,157.279 288.507,157.548 287.441 C 157.816 286.375,157.950 285.416,157.844 285.311 C 157.739 285.206,157.450 285.871,157.203 286.789 M146.600 289.200 C 146.217 290.761,145.999 292.132,146.114 292.247 C 146.229 292.362,146.618 291.161,146.978 289.578 C 147.338 287.995,147.557 286.623,147.464 286.531 C 147.371 286.438,146.983 287.639,146.600 289.200 M142.658 289.800 C 143.020 292.954,143.630 295.145,143.365 292.341 C 143.248 291.098,142.990 289.568,142.791 288.941 C 142.516 288.073,142.484 288.278,142.658 289.800 M155.422 293.236 C 155.046 294.576,154.830 295.764,154.943 295.876 C 155.129 296.062,155.482 294.964,156.221 291.900 C 156.737 289.762,156.096 290.834,155.422 293.236 M133.653 292.600 C 133.644 293.040,133.887 294.570,134.191 296.000 L 134.745 298.600 134.517 296.219 C 134.268 293.630,133.681 291.172,133.653 292.600 M144.974 295.800 C 144.829 296.570,144.551 297.200,144.355 297.200 C 144.160 297.200,144.007 297.605,144.016 298.100 C 144.032 298.986,144.040 298.985,144.569 298.000 C 145.172 296.876,145.778 294.400,145.450 294.400 C 145.332 294.400,145.118 295.030,144.974 295.800 M153.676 299.400 C 152.853 302.449,152.817 303.389,153.614 301.022 C 154.054 299.715,154.346 298.455,154.262 298.222 C 154.178 297.990,153.914 298.520,153.676 299.400 M135.358 302.800 C 135.983 306.984,136.501 309.632,136.663 309.470 C 136.893 309.241,135.643 301.503,135.331 301.220 C 135.198 301.099,135.210 301.810,135.358 302.800 M151.825 306.025 C 151.447 307.371,151.217 308.551,151.313 308.647 C 151.410 308.743,151.797 307.721,152.175 306.375 C 152.553 305.029,152.783 303.849,152.687 303.753 C 152.590 303.657,152.203 304.679,151.825 306.025 M150.222 311.636 C 149.846 312.976,149.630 314.164,149.743 314.276 C 149.929 314.462,150.282 313.364,151.021 310.300 C 151.537 308.162,150.896 309.234,150.222 311.636 M137.448 314.565 C 137.572 315.866,137.835 317.306,138.032 317.765 C 138.460 318.763,138.135 315.758,137.580 313.594 C 137.302 312.508,137.273 312.723,137.448 314.565 M148.600 317.200 C 148.450 317.673,148.417 318.150,148.527 318.260 C 148.637 318.370,148.850 318.073,149.000 317.600 C 149.150 317.127,149.183 316.650,149.073 316.540 C 148.963 316.430,148.750 316.727,148.600 317.200 " stroke="none" fill="#f49494" fill-rule="evenodd"></path></g></svg>